<?xml version="1.0" encoding="us-ascii" standalone="no"?><svg xmlns="http://www.w3.org/2000/svg" xmlns:xlink="http://www.w3.org/1999/xlink" contentStyleType="text/css" height="638px" preserveAspectRatio="none" style="width:1226px;height:638px;background:#EEEBDC;" version="1.1" viewBox="0 0 1226 638" width="1226px" zoomAndPan="magnify"><defs/><g><rect fill="#EEEBDC" height="638" style="stroke:none;stroke-width:1.0;" width="1226" x="0" y="0"/><text fill="#000000" font-family="sans-serif" font-size="14" font-weight="bold" lengthAdjust="spacing" textLength="119" x="550.75" y="27.9951">llc&#27880;&#20876;ZPU&#26102;&#24207;&#22270;</text><polygon fill="#DDDDDD" points="522.5,43.2969,522.5,43.5071,532.5268,42.8826,542.5536,43.4902,552.5804,43.6966,562.6071,42.5835,572.6339,43.2192,582.6607,42.8704,592.6875,42.9134,602.7143,43.2287,612.7411,42.6055,622.7679,43.8505,632.7946,42.6666,642.8214,43.0991,652.8482,43.7288,662.875,43.2111,672.9018,43.3651,682.9286,43.2649,692.9554,43.4754,702.9821,43.536,713.0089,43.8826,723.0357,43.9679,733.0625,43.9761,743.0893,43.5515,753.1161,43.7605,763.1429,43.9991,773.1696,42.5757,783.1964,43.9754,793.2232,43.0004,803.25,43.8307,813.2768,42.8019,823.3036,43.2284,833.3304,44.0385,843.3571,43.2481,853.3839,43.4022,863.4107,43.6355,873.4375,43.7131,883.4643,43.293,893.4911,43.5841,903.5179,42.7245,913.5446,43.5813,923.5714,43.8451,933.5982,43.7414,943.625,43.9099,953.6518,42.8138,963.6786,42.6447,973.7054,42.6755,983.7321,43.238,993.7589,43.1003,1003.7857,43.9783,1013.8125,43.1222,1023.8393,42.9538,1033.8661,43.5251,1043.8929,42.63,1053.9196,42.7777,1063.9464,43.9458,1073.9732,43.7325,1084,43.2969,1084.7345,43.2969,1083.6782,53.2873,1084.3192,63.2778,1084.5904,73.2683,1083.5276,83.2587,1083.9041,93.2492,1084.126,103.2397,1084.6518,113.2301,1083.9958,123.2206,1084.4626,133.2111,1083.4462,143.2015,1083.3227,153.192,1084.5036,163.1825,1083.2831,173.1729,1084.509,183.1634,1084.2066,193.1539,1083.7321,203.1443,1083.6462,213.1348,1084.4588,223.1253,1083.7007,233.1157,1084.5919,243.1062,1083.4473,253.0967,1084.6174,263.0871,1084.4843,273.0776,1084.245,283.0681,1084.0472,293.0585,1084.7266,303.049,1084.6136,313.0395,1084.1693,323.0299,1084.2682,333.0204,1083.8697,343.0109,1084.7165,353.0013,1084.1549,362.9918,1084.1726,372.9823,1083.3916,382.9727,1083.5948,392.9632,1084.5307,402.9537,1084.4298,412.9441,1083.9571,422.9346,1083.6778,432.9251,1083.7811,442.9155,1083.3138,452.906,1084.4147,462.8965,1084.7396,472.8869,1084.5264,482.8774,1084.6949,492.8678,1083.8633,502.8583,1084.0872,512.8488,1083.6124,522.8392,1084.284,532.8297,1084.2468,542.8202,1084.5524,552.8106,1083.7703,562.8011,1083.8656,572.7916,1084.4435,582.782,1084.5673,592.7725,1083.4875,602.763,1083.8061,612.7534,1084.1493,622.7439,1084,632.7344,1084,632.1235,1073.9732,633.0878,1063.9464,632.9924,1053.9196,632.6336,1043.8929,632.8766,1033.8661,633.4631,1023.8393,632.4215,1013.8125,633.0494,1003.7857,633.02,993.7589,632.8501,983.7321,632.8753,973.7054,632.8479,963.6786,632.1102,953.6518,632.3336,943.625,632.2728,933.5982,632.7982,923.5714,632.8225,913.5446,632.8961,903.5179,632.4434,893.4911,632.6669,883.4643,632.6142,873.4375,633.3112,863.4107,633.1609,853.3839,632.2488,843.3571,632.6615,833.3304,632.1571,823.3036,633.0228,813.2768,633.3429,803.25,633.2789,793.2232,632.2988,783.1964,633.1983,773.1696,631.9916,763.1429,632.9345,753.1161,632.4351,743.0893,632.8311,733.0625,632.9747,723.0357,633.2065,713.0089,632.0145,702.9821,633.2098,692.9554,632.9125,682.9286,633.0897,672.9018,633.4822,662.875,632.7399,652.8482,632.9096,642.8214,632.9478,632.7946,632.9316,622.7679,632.7336,612.7411,633.4451,602.7143,632.1246,592.6875,633.2997,582.6607,632.1104,572.6339,632.1941,562.6071,632.7744,552.5804,632.7627,542.5536,632.2415,532.5268,633.1481,522.5,632.7344,522.6089,632.7344,523.2267,622.7439,523.1671,612.7534,522.0517,602.763,522.1021,592.7725,522.3708,582.782,522.8555,572.7916,522.903,562.8011,522.8012,552.8106,522.158,542.8202,523.1364,532.8297,523.1338,522.8392,522.4527,512.8488,522.2609,502.8583,522.0986,492.8678,522.2854,482.8774,522.6374,472.8869,522.4316,462.8965,522.0822,452.906,522.9874,442.9155,522.0411,432.9251,523.0024,422.9346,522.9272,412.9441,522.8719,402.9537,523.1925,392.9632,522.2541,382.9727,522.1994,372.9823,523.0189,362.9918,521.9031,353.0013,522.266,343.0109,522.6155,333.0204,522.5687,323.0299,522.1415,313.0395,522.457,303.049,523.2446,293.0585,523.1485,283.0681,521.9037,273.0776,522.5785,263.0871,521.9861,253.0967,522.4737,243.1062,522.793,233.1157,522.9199,223.1253,521.8353,213.1348,522.9005,203.1443,522.5084,193.1539,521.9447,183.1634,522.0289,173.1729,522.8266,163.1825,522.7499,153.192,522.4836,143.2015,521.8279,133.2111,523.1581,123.2206,522.1882,113.2301,521.9719,103.2397,522.4327,93.2492,523.0897,83.2587,523.1154,73.2683,522.5351,63.2778,522.3488,53.2873,522.5,43.2969" style="stroke:#181818;stroke-width:0.5;"/><text fill="#000000" font-family="sans-serif" font-size="13" font-weight="bold" lengthAdjust="spacing" textLength="91" x="757.75" y="55.3638">&#38656;&#35201;&#27880;&#20876;&#30340;&#20449;&#24687;</text><polygon fill="#DDDDDD" points="1158.5,43.2969,1158.5,43.5071,1168.8333,42.8826,1179.1667,43.4902,1189.5,43.6966,1199.8333,42.5835,1210.1667,43.2192,1220.5,43.2969,1220.0735,43.2969,1220.1165,53.2873,1220.4318,63.2778,1219.8086,73.2683,1221.0536,83.2587,1219.8697,93.2492,1220.3022,103.2397,1220.9319,113.2301,1220.4142,123.2206,1220.5682,133.2111,1220.4681,143.2015,1220.6785,153.192,1220.7391,163.1825,1221.0857,173.1729,1221.1711,183.1634,1221.1793,193.1539,1220.7546,203.1443,1220.9636,213.1348,1221.2022,223.1253,1219.7788,233.1157,1221.1785,243.1062,1220.2035,253.0967,1221.0338,263.0871,1220.005,273.0776,1220.4315,283.0681,1221.2416,293.0585,1220.4513,303.049,1220.6053,313.0395,1220.8386,323.0299,1220.9162,333.0204,1220.4961,343.0109,1220.7872,353.0013,1219.9276,362.9918,1220.7844,372.9823,1221.0482,382.9727,1220.9445,392.9632,1221.113,402.9537,1220.0169,412.9441,1219.8478,422.9346,1219.8786,432.9251,1220.4411,442.9155,1220.3035,452.906,1221.1814,462.8965,1220.3253,472.8869,1220.1569,482.8774,1220.7283,492.8678,1219.8332,502.8583,1219.9809,512.8488,1221.149,522.8392,1220.9357,532.8297,1221.2345,542.8202,1220.1782,552.8106,1220.8192,562.8011,1221.0904,572.7916,1220.0276,582.782,1220.4041,592.7725,1220.626,602.763,1221.1518,612.7534,1220.4958,622.7439,1220.5,632.7344,1220.5,633.1969,1210.1667,632.1806,1199.8333,632.0571,1189.5,633.238,1179.1667,632.0174,1168.8333,633.2433,1158.5,632.7344,1158.7066,632.7344,1158.2321,622.7439,1158.1462,612.7534,1158.9588,602.763,1158.2007,592.7725,1159.0919,582.782,1157.9473,572.7916,1159.1174,562.8011,1158.9843,552.8106,1158.745,542.8202,1158.5472,532.8297,1159.2266,522.8392,1159.1136,512.8488,1158.6693,502.8583,1158.7682,492.8678,1158.3697,482.8774,1159.2165,472.8869,1158.6549,462.8965,1158.6726,452.906,1157.8916,442.9155,1158.0948,432.9251,1159.0307,422.9346,1158.9298,412.9441,1158.4571,402.9537,1158.1778,392.9632,1158.2811,382.9727,1157.8138,372.9823,1158.9147,362.9918,1159.2396,353.0013,1159.0264,343.0109,1159.1949,333.0204,1158.3633,323.0299,1158.5872,313.0395,1158.1124,303.049,1158.784,293.0585,1158.7468,283.0681,1159.0524,273.0776,1158.2703,263.0871,1158.3656,253.0967,1158.9435,243.1062,1159.0673,233.1157,1157.9875,223.1253,1158.3061,213.1348,1158.6493,203.1443,1157.8892,193.1539,1158.8534,183.1634,1158.758,173.1729,1158.3992,163.1825,1158.6422,153.192,1159.2287,143.2015,1158.1871,133.2111,1158.815,123.2206,1158.7856,113.2301,1158.6158,103.2397,1158.6409,93.2492,1158.6135,83.2587,1157.8758,73.2683,1158.0992,63.2778,1158.0385,53.2873,1158.5,43.2969" style="stroke:#181818;stroke-width:0.5;"/><text fill="#000000" font-family="sans-serif" font-size="13" font-weight="bold" lengthAdjust="spacing" textLength="56" x="1161.5" y="55.3638">ZPU&#21518;&#31471;</text><path d="M27,122.0859 L27.2802,122.0859 L26.4476,132.0362 L27.2577,141.9864 L27.5329,151.9366 L26.0488,161.8868 L26.8964,171.837 L26.4313,181.7872 L26.4887,191.7375 L26.9091,201.6877 L26.0782,211.6379 L27.7382,221.5881 L26.1596,231.5383 L26.7363,241.4886 L27.5759,251.4388 L26.8856,261.389 L27.091,271.3392 L26.9574,281.2894 L27.238,291.2396 L27.3188,301.1899 L27.7809,311.1401 L27.8947,321.0903 L27.9057,331.0405 L27.3395,340.9907 L27.6181,350.941 L27.9363,360.8912 L26.0384,370.8414 L27.9047,380.7916 L26.6047,390.7418 L27.7117,400.692 L26.34,410.6423 L26.9087,420.5925 L27.9888,430.5427 L26.935,440.4929 L27.1404,450.4431 L27.4515,460.3934 L27.555,470.3436 L26.9948,480.2938 L27.383,490.244 L26.2368,500.1942 L27.3792,510.1444 L27.7309,520.0947 L27.5927,530.0449 L27.8174,539.9951 L27,549.9453 " fill="none" style="stroke:#0000FF;stroke-width:0.5;stroke-dasharray:5.0,5.0;"/><path d="M155,122.0859 L155.2802,122.0859 L154.4476,132.0362 L155.2577,141.9864 L155.5329,151.9366 L154.0488,161.8868 L154.8964,171.837 L154.4313,181.7872 L154.4887,191.7375 L154.9091,201.6877 L154.0782,211.6379 L155.7382,221.5881 L154.1596,231.5383 L154.7363,241.4886 L155.5759,251.4388 L154.8856,261.389 L155.091,271.3392 L154.9574,281.2894 L155.238,291.2396 L155.3188,301.1899 L155.7809,311.1401 L155.8947,321.0903 L155.9057,331.0405 L155.3395,340.9907 L155.6181,350.941 L155.9363,360.8912 L154.0384,370.8414 L155.9047,380.7916 L154.6047,390.7418 L155.7117,400.692 L154.34,410.6423 L154.9087,420.5925 L155.9888,430.5427 L154.935,440.4929 L155.1404,450.4431 L155.4515,460.3934 L155.555,470.3436 L154.9948,480.2938 L155.383,490.244 L154.2368,500.1942 L155.3792,510.1444 L155.7309,520.0947 L155.5927,530.0449 L155.8174,539.9951 L155,549.9453 " fill="none" style="stroke:#0000FF;stroke-width:0.5;stroke-dasharray:5.0,5.0;"/><path d="M360.5,122.0859 L360.7802,122.0859 L359.9476,132.0362 L360.7577,141.9864 L361.0329,151.9366 L359.5488,161.8868 L360.3964,171.837 L359.9313,181.7872 L359.9887,191.7375 L360.4091,201.6877 L359.5782,211.6379 L361.2382,221.5881 L359.6596,231.5383 L360.2363,241.4886 L361.0759,251.4388 L360.3856,261.389 L360.591,271.3392 L360.4574,281.2894 L360.738,291.2396 L360.8188,301.1899 L361.2809,311.1401 L361.3947,321.0903 L361.4057,331.0405 L360.8395,340.9907 L361.1181,350.941 L361.4363,360.8912 L359.5384,370.8414 L361.4047,380.7916 L360.1047,390.7418 L361.2117,400.692 L359.84,410.6423 L360.4087,420.5925 L361.4888,430.5427 L360.435,440.4929 L360.6404,450.4431 L360.9515,460.3934 L361.055,470.3436 L360.4948,480.2938 L360.883,490.244 L359.7368,500.1942 L360.8792,510.1444 L361.2309,520.0947 L361.0927,530.0449 L361.3174,539.9951 L360.5,549.9453 " fill="none" style="stroke:#0000FF;stroke-width:0.5;stroke-dasharray:5.0,5.0;"/><path d="M454.5,122.0859 L454.7802,122.0859 L453.9476,132.0362 L454.7577,141.9864 L455.0329,151.9366 L453.5488,161.8868 L454.3964,171.837 L453.9313,181.7872 L453.9887,191.7375 L454.4091,201.6877 L453.5782,211.6379 L455.2382,221.5881 L453.6596,231.5383 L454.2363,241.4886 L455.0759,251.4388 L454.3856,261.389 L454.591,271.3392 L454.4574,281.2894 L454.738,291.2396 L454.8188,301.1899 L455.2809,311.1401 L455.3947,321.0903 L455.4057,331.0405 L454.8395,340.9907 L455.1181,350.941 L455.4363,360.8912 L453.5384,370.8414 L455.4047,380.7916 L454.1047,390.7418 L455.2117,400.692 L453.84,410.6423 L454.4087,420.5925 L455.4888,430.5427 L454.435,440.4929 L454.6404,450.4431 L454.9515,460.3934 L455.055,470.3436 L454.4948,480.2938 L454.883,490.244 L453.7368,500.1942 L454.8792,510.1444 L455.2309,520.0947 L455.0927,530.0449 L455.3174,539.9951 L454.5,549.9453 " fill="none" style="stroke:#0000FF;stroke-width:0.5;stroke-dasharray:5.0,5.0;"/><path d="M576.5,122.0859 L576.7802,122.0859 L575.9476,132.0362 L576.7577,141.9864 L577.0329,151.9366 L575.5488,161.8868 L576.3964,171.837 L575.9313,181.7872 L575.9887,191.7375 L576.4091,201.6877 L575.5782,211.6379 L577.2382,221.5881 L575.6596,231.5383 L576.2363,241.4886 L577.0759,251.4388 L576.3856,261.389 L576.591,271.3392 L576.4574,281.2894 L576.738,291.2396 L576.8188,301.1899 L577.2809,311.1401 L577.3947,321.0903 L577.4057,331.0405 L576.8395,340.9907 L577.1181,350.941 L577.4363,360.8912 L575.5384,370.8414 L577.4047,380.7916 L576.1047,390.7418 L577.2117,400.692 L575.84,410.6423 L576.4087,420.5925 L577.4888,430.5427 L576.435,440.4929 L576.6404,450.4431 L576.9515,460.3934 L577.055,470.3436 L576.4948,480.2938 L576.883,490.244 L575.7368,500.1942 L576.8792,510.1444 L577.2309,520.0947 L577.0927,530.0449 L577.3174,539.9951 L576.5,549.9453 " fill="none" style="stroke:#0000FF;stroke-width:0.5;stroke-dasharray:5.0,5.0;"/><path d="M777,122.0859 L777.2802,122.0859 L776.4476,132.0362 L777.2577,141.9864 L777.5329,151.9366 L776.0488,161.8868 L776.8964,171.837 L776.4313,181.7872 L776.4887,191.7375 L776.9091,201.6877 L776.0782,211.6379 L777.7382,221.5881 L776.1596,231.5383 L776.7363,241.4886 L777.5759,251.4388 L776.8856,261.389 L777.091,271.3392 L776.9574,281.2894 L777.238,291.2396 L777.3188,301.1899 L777.7809,311.1401 L777.8947,321.0903 L777.9057,331.0405 L777.3395,340.9907 L777.6181,350.941 L777.9363,360.8912 L776.0384,370.8414 L777.9047,380.7916 L776.6047,390.7418 L777.7117,400.692 L776.34,410.6423 L776.9087,420.5925 L777.9888,430.5427 L776.935,440.4929 L777.1404,450.4431 L777.4515,460.3934 L777.555,470.3436 L776.9948,480.2938 L777.383,490.244 L776.2368,500.1942 L777.3792,510.1444 L777.7309,520.0947 L777.5927,530.0449 L777.8174,539.9951 L777,549.9453 " fill="none" style="stroke:#0000FF;stroke-width:0.5;stroke-dasharray:5.0,5.0;"/><path d="M1011,122.0859 L1011.2802,122.0859 L1010.4476,132.0362 L1011.2577,141.9864 L1011.5329,151.9366 L1010.0488,161.8868 L1010.8964,171.837 L1010.4313,181.7872 L1010.4887,191.7375 L1010.9091,201.6877 L1010.0782,211.6379 L1011.7382,221.5881 L1010.1596,231.5383 L1010.7363,241.4886 L1011.5759,251.4388 L1010.8856,261.389 L1011.091,271.3392 L1010.9574,281.2894 L1011.238,291.2396 L1011.3188,301.1899 L1011.7809,311.1401 L1011.8947,321.0903 L1011.9057,331.0405 L1011.3395,340.9907 L1011.6181,350.941 L1011.9363,360.8912 L1010.0384,370.8414 L1011.9047,380.7916 L1010.6047,390.7418 L1011.7117,400.692 L1010.34,410.6423 L1010.9087,420.5925 L1011.9888,430.5427 L1010.935,440.4929 L1011.1404,450.4431 L1011.4515,460.3934 L1011.555,470.3436 L1010.9948,480.2938 L1011.383,490.244 L1010.2368,500.1942 L1011.3792,510.1444 L1011.7309,520.0947 L1011.5927,530.0449 L1011.8174,539.9951 L1011,549.9453 " fill="none" style="stroke:#0000FF;stroke-width:0.5;stroke-dasharray:5.0,5.0;"/><path d="M1189,122.0859 L1189.2802,122.0859 L1188.4476,132.0362 L1189.2577,141.9864 L1189.5329,151.9366 L1188.0488,161.8868 L1188.8964,171.837 L1188.4313,181.7872 L1188.4887,191.7375 L1188.9091,201.6877 L1188.0782,211.6379 L1189.7382,221.5881 L1188.1596,231.5383 L1188.7363,241.4886 L1189.5759,251.4388 L1188.8856,261.389 L1189.091,271.3392 L1188.9574,281.2894 L1189.238,291.2396 L1189.3188,301.1899 L1189.7809,311.1401 L1189.8947,321.0903 L1189.9057,331.0405 L1189.3395,340.9907 L1189.6181,350.941 L1189.9363,360.8912 L1188.0384,370.8414 L1189.9047,380.7916 L1188.6047,390.7418 L1189.7117,400.692 L1188.34,410.6423 L1188.9087,420.5925 L1189.9888,430.5427 L1188.935,440.4929 L1189.1404,450.4431 L1189.4515,460.3934 L1189.555,470.3436 L1188.9948,480.2938 L1189.383,490.244 L1188.2368,500.1942 L1189.3792,510.1444 L1189.7309,520.0947 L1189.5927,530.0449 L1189.8174,539.9951 L1189,549.9453 " fill="none" style="stroke:#0000FF;stroke-width:0.5;stroke-dasharray:5.0,5.0;"/><text fill="#00BFFF" font-family="Aapex" font-size="17" lengthAdjust="spacing" textLength="38" x="5" y="118.0767">User</text><polygon fill="#00FFFF" points="35.0442,52.7428,33.8715,54.3451,32.4845,56.6919,30.5008,58.2735,28.4163,59.1384,26.7542,59.2135,24.618,58.1318,22.6023,57.4252,21.0724,55.9905,20.2699,54.348,19.7939,53.0402,19.3277,51.3319,18.5709,49.8619,19.1525,48.4267,19.662,46.8545,21.574,45.611,22.9192,43.9977,24.5843,43.4619,26.5637,43.0005,29.1021,43.2747,30.4924,43.9304,32.1089,44.2276,34.0743,46.2412,34.7595,48.367,35.0571,49.8175,34.72,52.2077" style="stroke:#00BFFF;stroke-width:0.5;"/><path d="M27,58.7969 L27.1868,58.7969 L26.6317,64.1969 L27.1718,69.5969 L27.3553,74.9969 L26.3659,80.3969 L27,85.7969 M14,66.7969 L14,66.7278 L19.2,66.4178 L24.4,66.456 L29.6,66.7363 L34.8,66.1823 L40,66.7969 M27,85.7969 L27.3719,86.1192 L23.9766,88.43 L21.6672,91.6817 L19.4901,95.0483 L16.5424,97.7469 L14,100.7969 M27,85.7969 L27.0458,85.8366 L29.5785,88.7783 L32.3199,91.9008 L34.9606,94.9361 L37.7934,98.1378 L40,100.7969 " fill="none" style="stroke:#00BFFF;stroke-width:0.5;"/><text fill="#00BFFF" font-family="Aapex" font-size="17" lengthAdjust="spacing" textLength="38" x="5" y="564.7251">User</text><polygon fill="#00FFFF" points="35.0442,579.1803,33.8715,580.7826,32.4845,583.1294,30.5008,584.711,28.4163,585.5759,26.7542,585.651,24.618,584.5693,22.6023,583.8627,21.0724,582.428,20.2699,580.7855,19.7939,579.4777,19.3277,577.7694,18.5709,576.2994,19.1525,574.8642,19.662,573.292,21.574,572.0485,22.9192,570.4352,24.5843,569.8994,26.5637,569.438,29.1021,569.7122,30.4924,570.3679,32.1089,570.6651,34.0743,572.6787,34.7595,574.8045,35.0571,576.255,34.72,578.6452" style="stroke:#00BFFF;stroke-width:0.5;"/><path d="M27,585.2344 L27.1868,585.2344 L26.6317,590.6344 L27.1718,596.0344 L27.3553,601.4344 L26.3659,606.8344 L27,612.2344 M14,593.2344 L14,593.1653 L19.2,592.8553 L24.4,592.8935 L29.6,593.1738 L34.8,592.6198 L40,593.2344 M27,612.2344 L27.3719,612.5567 L23.9766,614.8675 L21.6672,618.1192 L19.4901,621.4858 L16.5424,624.1844 L14,627.2344 M27,612.2344 L27.0458,612.2741 L29.5785,615.2158 L32.3199,618.3383 L34.9606,621.3736 L37.7934,624.5753 L40,627.2344 " fill="none" style="stroke:#00BFFF;stroke-width:0.5;"/><polygon fill="#1E90FF" points="141.5,87.2969,141.5,87.3669,146.9,87.1588,152.3,87.3613,157.7,87.4301,163.1,87.0591,168.5,87.2969,168.4901,87.2729,168.7991,87.312,169.1582,87.4717,169.552,87.7152,169.826,87.6697,170.2678,88.0291,170.4383,88.0997,170.2201,88.3023,170.4998,88.711,170.8401,89.1449,170.8271,89.4324,171,89.7969,171.0227,89.7969,170.9894,95.5547,171.0595,101.3125,171.0797,107.0703,171.1952,112.8281,171,118.5859,171.2067,118.6715,171.0627,119.0261,170.7855,119.3255,170.7034,119.7057,170.6305,120.0897,170.2678,120.3537,170.1758,120.1316,170.0008,120.7091,169.5228,120.5553,169.2752,120.9574,168.7904,120.787,168.5,121.0859,168.5,121.0631,163.1,121.3331,157.7,121.0697,152.3,121.121,146.9,121.1988,141.5,121.0859,141.5531,121.2141,141.1459,120.9383,140.8295,120.8815,140.3663,120.4703,140.1221,120.5877,139.7322,120.3537,139.9011,120.4236,139.7227,120.0569,139.6281,119.7248,139.1441,119.2314,138.9456,118.8563,139,118.5859,138.7929,118.5859,138.9804,112.8281,138.9345,107.0703,139.2271,101.3125,138.9418,95.5547,139,89.7969,138.8944,89.7531,139.2167,89.4724,139.0875,89.0047,139.2795,88.67,139.7856,88.4654,139.7322,88.0291,139.7878,88.1633,140.1795,88.1089,140.3983,87.6371,140.8336,87.6881,141.2218,87.6251,141.5,87.2969" style="stroke:#00BFFF;stroke-width:0.5;"/><text fill="#A9DCDF" font-family="Impact" font-size="17" lengthAdjust="spacing" textLength="18" x="146" y="110.0767">llc</text><polygon fill="#1E90FF" points="141.5,548.9453,141.5,549.0154,146.9,548.8072,152.3,549.0097,157.7,549.0785,163.1,548.7075,168.5,548.9453,168.4901,548.9214,168.7991,548.9604,169.1582,549.1201,169.552,549.3637,169.826,549.3182,170.2678,549.6775,170.4383,549.7482,170.2201,549.9507,170.4998,550.3594,170.8401,550.7933,170.8271,551.0808,171,551.4453,171.0227,551.4453,170.9894,557.2031,171.0595,562.9609,171.0797,568.7188,171.1952,574.4766,171,580.2344,171.2067,580.32,171.0627,580.6746,170.7855,580.974,170.7034,581.3542,170.6305,581.7382,170.2678,582.0021,170.1758,581.78,170.0008,582.3575,169.5228,582.2037,169.2752,582.6059,168.7904,582.4355,168.5,582.7344,168.5,582.7115,163.1,582.9816,157.7,582.7181,152.3,582.7695,146.9,582.8473,141.5,582.7344,141.5531,582.8626,141.1459,582.5867,140.8295,582.5299,140.3663,582.1188,140.1221,582.2362,139.7322,582.0021,139.9011,582.0721,139.7227,581.7053,139.6281,581.3732,139.1441,580.8799,138.9456,580.5047,139,580.2344,138.7929,580.2344,138.9804,574.4766,138.9345,568.7188,139.2271,562.9609,138.9418,557.2031,139,551.4453,138.8944,551.4016,139.2167,551.1209,139.0875,550.6531,139.2795,550.3184,139.7856,550.1139,139.7322,549.6775,139.7878,549.8117,140.1795,549.7573,140.3983,549.2856,140.8336,549.3365,141.2218,549.2736,141.5,548.9453" style="stroke:#00BFFF;stroke-width:0.5;"/><text fill="#A9DCDF" font-family="Impact" font-size="17" lengthAdjust="spacing" textLength="18" x="146" y="571.7251">llc</text><polygon fill="#1E90FF" points="342,87.2969,342,87.3669,349.6,87.1588,357.2,87.3613,364.8,87.4301,372.4,87.0591,380,87.2969,379.9901,87.2729,380.2991,87.312,380.6582,87.4717,381.052,87.7152,381.326,87.6697,381.7678,88.0291,381.9383,88.0997,381.7201,88.3023,381.9998,88.711,382.3401,89.1449,382.3271,89.4324,382.5,89.7969,382.5227,89.7969,382.4894,95.5547,382.5595,101.3125,382.5797,107.0703,382.6952,112.8281,382.5,118.5859,382.7067,118.6715,382.5627,119.0261,382.2855,119.3255,382.2034,119.7057,382.1305,120.0897,381.7678,120.3537,381.6758,120.1316,381.5008,120.7091,381.0228,120.5553,380.7752,120.9574,380.2904,120.787,380,121.0859,380,121.0631,372.4,121.3331,364.8,121.0697,357.2,121.121,349.6,121.1988,342,121.0859,342.0531,121.2141,341.6459,120.9383,341.3295,120.8815,340.8663,120.4703,340.6221,120.5877,340.2322,120.3537,340.4011,120.4236,340.2227,120.0569,340.1281,119.7248,339.6441,119.2314,339.4456,118.8563,339.5,118.5859,339.2929,118.5859,339.4804,112.8281,339.4345,107.0703,339.7271,101.3125,339.4418,95.5547,339.5,89.7969,339.3944,89.7531,339.7167,89.4724,339.5875,89.0047,339.7795,88.67,340.2856,88.4654,340.2322,88.0291,340.2878,88.1633,340.6795,88.1089,340.8983,87.6371,341.3336,87.6881,341.7218,87.6251,342,87.2969" style="stroke:#00BFFF;stroke-width:0.5;"/><text fill="#A9DCDF" font-family="Impact" font-size="17" lengthAdjust="spacing" textLength="29" x="346.5" y="110.0767">Init</text><polygon fill="#1E90FF" points="342,548.9453,342,549.0154,349.6,548.8072,357.2,549.0097,364.8,549.0785,372.4,548.7075,380,548.9453,379.9901,548.9214,380.2991,548.9604,380.6582,549.1201,381.052,549.3637,381.326,549.3182,381.7678,549.6775,381.9383,549.7482,381.7201,549.9507,381.9998,550.3594,382.3401,550.7933,382.3271,551.0808,382.5,551.4453,382.5227,551.4453,382.4894,557.2031,382.5595,562.9609,382.5797,568.7188,382.6952,574.4766,382.5,580.2344,382.7067,580.32,382.5627,580.6746,382.2855,580.974,382.2034,581.3542,382.1305,581.7382,381.7678,582.0021,381.6758,581.78,381.5008,582.3575,381.0228,582.2037,380.7752,582.6059,380.2904,582.4355,380,582.7344,380,582.7115,372.4,582.9816,364.8,582.7181,357.2,582.7695,349.6,582.8473,342,582.7344,342.0531,582.8626,341.6459,582.5867,341.3295,582.5299,340.8663,582.1188,340.6221,582.2362,340.2322,582.0021,340.4011,582.0721,340.2227,581.7053,340.1281,581.3732,339.6441,580.8799,339.4456,580.5047,339.5,580.2344,339.2929,580.2344,339.4804,574.4766,339.4345,568.7188,339.7271,562.9609,339.4418,557.2031,339.5,551.4453,339.3944,551.4016,339.7167,551.1209,339.5875,550.6531,339.7795,550.3184,340.2856,550.1139,340.2322,549.6775,340.2878,549.8117,340.6795,549.7573,340.8983,549.2856,341.3336,549.3365,341.7218,549.2736,342,548.9453" style="stroke:#00BFFF;stroke-width:0.5;"/><text fill="#A9DCDF" font-family="Impact" font-size="17" lengthAdjust="spacing" textLength="29" x="346.5" y="571.7251">Init</text><polygon fill="#1E90FF" points="395,87.2969,395,87.5071,404.9167,86.8826,414.8333,87.4902,424.75,87.6966,434.6667,86.5835,444.5833,87.2192,454.5,86.8704,464.4167,86.9134,474.3333,87.2287,484.25,86.6055,494.1667,87.8505,504.0833,86.6666,514,87.2969,513.9748,87.236,514.4087,87.5763,514.6962,87.5634,515.0694,87.7572,515.4101,87.8728,515.7678,88.0291,515.8227,88.0519,515.9879,88.4132,516.241,88.8109,516.4138,89.1754,516.5627,89.53,516.5,89.7969,516.5849,89.7969,516.6545,95.5547,516.7341,101.3125,516.2596,107.0703,516.7262,112.8281,516.5,118.5859,516.4087,118.5481,516.5179,119.0076,516.0547,119.2299,516.0396,119.6379,516.1426,120.0948,515.7678,120.3537,515.7616,120.3387,515.4276,120.5326,515.1039,120.7509,514.7602,120.9212,514.3531,120.9383,514,121.0859,514,121.3732,504.0833,120.5135,494.1667,121.3703,484.25,121.6341,474.3333,121.5305,464.4167,121.699,454.5,120.6029,444.5833,120.4338,434.6667,120.4645,424.75,121.0271,414.8333,120.8894,404.9167,121.7673,395,121.0859,394.9777,121.0321,394.6027,120.8338,394.322,120.8633,393.8543,120.4412,393.5196,120.3403,393.2322,120.3537,393.4321,120.4365,393.22,120.0557,393.1655,119.7403,392.6938,119.252,392.7447,118.9802,392.5,118.5859,392.6968,118.5859,392.3425,112.8281,392.468,107.0703,392.542,101.3125,392.7173,95.5547,392.5,89.7969,392.4987,89.7963,392.7889,89.5023,392.6223,89.0191,392.7308,88.6498,393.2409,88.4469,393.2322,88.0291,393.1408,87.8083,393.6507,88.0394,393.9657,87.7998,394.2587,87.5073,394.6013,87.3344,395,87.2969" style="stroke:#00BFFF;stroke-width:0.5;"/><text fill="#A9DCDF" font-family="Impact" font-size="17" lengthAdjust="spacing" textLength="110" x="399.5" y="110.0767">lookupTarget</text><polygon fill="#1E90FF" points="395,548.9453,395,549.1555,404.9167,548.531,414.8333,549.1386,424.75,549.345,434.6667,548.2319,444.5833,548.8676,454.5,548.5188,464.4167,548.5618,474.3333,548.8772,484.25,548.2539,494.1667,549.499,504.0833,548.315,514,548.9453,513.9748,548.8844,514.4087,549.2248,514.6962,549.2118,515.0694,549.4057,515.4101,549.5213,515.7678,549.6775,515.8227,549.7003,515.9879,550.0616,516.241,550.4594,516.4138,550.8238,516.5627,551.1784,516.5,551.4453,516.5849,551.4453,516.6545,557.2031,516.7341,562.9609,516.2596,568.7188,516.7262,574.4766,516.5,580.2344,516.4087,580.1966,516.5179,580.656,516.0547,580.8783,516.0396,581.2863,516.1426,581.7432,515.7678,582.0021,515.7616,581.9871,515.4276,582.181,515.1039,582.3993,514.7602,582.5697,514.3531,582.5867,514,582.7344,514,583.0216,504.0833,582.162,494.1667,583.0188,484.25,583.2826,474.3333,583.1789,464.4167,583.3474,454.5,582.2513,444.5833,582.0822,434.6667,582.113,424.75,582.6755,414.8333,582.5378,404.9167,583.4158,395,582.7344,394.9777,582.6806,394.6027,582.4823,394.322,582.5118,393.8543,582.0897,393.5196,581.9887,393.2322,582.0021,393.4321,582.0849,393.22,581.7042,393.1655,581.3887,392.6938,580.9004,392.7447,580.6286,392.5,580.2344,392.6968,580.2344,392.3425,574.4766,392.468,568.7188,392.542,562.9609,392.7173,557.2031,392.5,551.4453,392.4987,551.4448,392.7889,551.1508,392.6223,550.6676,392.7308,550.2983,393.2409,550.0953,393.2322,549.6775,393.1408,549.4568,393.6507,549.6878,393.9657,549.4483,394.2587,549.1557,394.6013,548.9828,395,548.9453" style="stroke:#00BFFF;stroke-width:0.5;"/><text fill="#A9DCDF" font-family="Impact" font-size="17" lengthAdjust="spacing" textLength="110" x="399.5" y="571.7251">lookupTarget</text><polygon fill="#1E90FF" points="529,87.2969,529,87.5071,538.6,86.8826,548.2,87.4902,557.8,87.6966,567.4,86.5835,577,87.2192,586.6,86.8704,596.2,86.9134,605.8,87.2287,615.4,86.6055,625,87.2969,625.0706,87.4674,625.2732,87.2492,625.6819,87.5289,626.1158,87.8692,626.4033,87.8562,626.7678,88.0291,626.7888,88.0378,626.9044,88.3786,627.1156,88.759,627.2808,89.1203,627.5339,89.518,627.5,89.7969,627.7237,89.7969,627.7264,95.5547,627.5849,101.3125,627.6545,107.0703,627.7341,112.8281,627.5,118.5859,627.2779,118.4939,627.5625,119.026,627.1158,119.2552,627.2251,119.7147,626.7618,119.937,626.7678,120.3537,626.759,120.3326,626.5088,120.7285,626.0544,120.6316,625.7205,120.8255,625.3967,121.0438,625,121.0859,625,121.5022,615.4,121.082,605.8,121.3732,596.2,120.5135,586.6,121.3703,577,121.6341,567.4,121.5305,557.8,121.699,548.2,120.6029,538.6,120.4338,529,121.0859,528.9207,120.8946,528.6389,120.9214,528.2678,120.7325,528.0263,120.8564,527.5635,120.4464,527.2322,120.3537,527.1266,120.3099,527.1561,120.0293,526.734,119.5615,526.633,119.2268,526.8463,119.0223,526.5,118.5859,526.6452,118.5859,526.7448,112.8281,526.3927,107.0703,526.6064,101.3125,526.6968,95.5547,526.5,89.7969,526.3545,89.7366,526.6169,89.4311,526.8317,89.1058,527.1401,88.8194,527.0845,88.3821,527.2322,88.0291,527.2912,88.1716,527.5151,87.7121,527.8529,87.5276,528.3571,87.7449,528.555,87.2225,529,87.2969" style="stroke:#00BFFF;stroke-width:0.5;"/><text fill="#A9DCDF" font-family="Impact" font-size="17" lengthAdjust="spacing" textLength="87" x="533.5" y="110.0767">TargetInfo</text><polygon fill="#1E90FF" points="529,548.9453,529,549.1555,538.6,548.531,548.2,549.1386,557.8,549.345,567.4,548.2319,577,548.8676,586.6,548.5188,596.2,548.5618,605.8,548.8772,615.4,548.2539,625,548.9453,625.0706,549.1158,625.2732,548.8977,625.6819,549.1773,626.1158,549.5177,626.4033,549.5047,626.7678,549.6775,626.7888,549.6863,626.9044,550.027,627.1156,550.4074,627.2808,550.7687,627.5339,551.1665,627.5,551.4453,627.7237,551.4453,627.7264,557.2031,627.5849,562.9609,627.6545,568.7188,627.7341,574.4766,627.5,580.2344,627.2779,580.1424,627.5625,580.6745,627.1158,580.9037,627.2251,581.3631,626.7618,581.5854,626.7678,582.0021,626.759,581.981,626.5088,582.377,626.0544,582.28,625.7205,582.4739,625.3967,582.6922,625,582.7344,625,583.1506,615.4,582.7305,605.8,583.0216,596.2,582.162,586.6,583.0188,577,583.2826,567.4,583.1789,557.8,583.3474,548.2,582.2513,538.6,582.0822,529,582.7344,528.9207,582.543,528.6389,582.5698,528.2678,582.381,528.0263,582.5049,527.5635,582.0948,527.2322,582.0021,527.1266,581.9584,527.1561,581.6777,526.734,581.21,526.633,580.8753,526.8463,580.6707,526.5,580.2344,526.6452,580.2344,526.7448,574.4766,526.3927,568.7188,526.6064,562.9609,526.6968,557.2031,526.5,551.4453,526.3545,551.3851,526.6169,551.0795,526.8317,550.7543,527.1401,550.4678,527.0845,550.0306,527.2322,549.6775,527.2912,549.82,527.5151,549.3606,527.8529,549.1761,528.3571,549.3933,528.555,548.871,529,548.9453" style="stroke:#00BFFF;stroke-width:0.5;"/><text fill="#A9DCDF" font-family="Impact" font-size="17" lengthAdjust="spacing" textLength="87" x="533.5" y="571.7251">TargetInfo</text><polygon fill="#1E90FF" points="714.5,87.2969,714.5,87.5071,724.1154,86.8826,733.7308,87.4902,743.3462,87.6966,752.9615,86.5835,762.5769,87.2192,772.1923,86.8704,781.8077,86.9134,791.4231,87.2287,801.0385,86.6055,810.6538,87.8505,820.2692,86.6666,829.8846,87.0991,839.5,87.2969,839.5551,87.4299,839.8426,87.4169,840.2158,87.6108,840.5566,87.7264,840.937,87.9376,841.2678,88.0291,841.3414,88.0596,841.5946,88.4574,841.7673,88.8218,841.9163,89.1764,841.932,89.4758,842,89.7969,842.1545,89.7969,842.2341,95.5547,841.7596,101.3125,842.2262,107.0703,841.9012,112.8281,842,118.5859,842.1644,118.654,841.7011,118.8763,841.686,119.2843,841.789,119.7412,841.3992,119.9939,841.2678,120.3537,841.2812,120.3861,840.9574,120.6044,840.6138,120.7748,840.2066,120.7918,839.8902,121.0279,839.5,121.0859,839.5,120.5135,829.8846,121.3703,820.2692,121.6341,810.6538,121.5305,801.0385,121.699,791.4231,120.6029,781.8077,120.4338,772.1923,120.4645,762.5769,121.0271,752.9615,120.8894,743.3462,121.7673,733.7308,120.9113,724.1154,120.7429,714.5,121.0859,714.5291,121.1562,714.0614,120.7341,713.7267,120.6332,713.5221,120.8464,713.1414,120.6343,712.7322,120.3537,712.9584,120.4474,712.4867,119.9591,712.5376,119.6873,712.4747,119.3684,712.001,118.8792,712,118.5859,711.968,118.5859,712.042,112.8281,712.2173,107.0703,711.9986,101.3125,712.1542,95.5547,712,89.7969,711.8295,89.7262,711.9379,89.3569,712.448,89.154,712.2186,88.6448,712.7425,88.4476,712.7322,88.0291,712.7586,88.0927,713.0516,87.8002,713.3942,87.6273,713.8514,87.731,714.1083,87.3511,714.5,87.2969" style="stroke:#00BFFF;stroke-width:0.5;"/><text fill="#A9DCDF" font-family="Impact" font-size="17" lengthAdjust="spacing" textLength="116" x="719" y="110.0767">TargetMcDesc</text><polygon fill="#1E90FF" points="714.5,548.9453,714.5,549.1555,724.1154,548.531,733.7308,549.1386,743.3462,549.345,752.9615,548.2319,762.5769,548.8676,772.1923,548.5188,781.8077,548.5618,791.4231,548.8772,801.0385,548.2539,810.6538,549.499,820.2692,548.315,829.8846,548.7475,839.5,548.9453,839.5551,549.0783,839.8426,549.0653,840.2158,549.2592,840.5566,549.3748,840.937,549.5861,841.2678,549.6775,841.3414,549.708,841.5946,550.1058,841.7673,550.4703,841.9163,550.8249,841.932,551.1242,842,551.4453,842.1545,551.4453,842.2341,557.2031,841.7596,562.9609,842.2262,568.7188,841.9012,574.4766,842,580.2344,842.1644,580.3025,841.7011,580.5248,841.686,580.9327,841.789,581.3896,841.3992,581.6424,841.2678,582.0021,841.2812,582.0346,840.9574,582.2529,840.6138,582.4232,840.2066,582.4403,839.8902,582.6764,839.5,582.7344,839.5,582.162,829.8846,583.0188,820.2692,583.2826,810.6538,583.1789,801.0385,583.3474,791.4231,582.2513,781.8077,582.0822,772.1923,582.113,762.5769,582.6755,752.9615,582.5378,743.3462,583.4158,733.7308,582.5597,724.1154,582.3913,714.5,582.7344,714.5291,582.8047,714.0614,582.3826,713.7267,582.2816,713.5221,582.4949,713.1414,582.2828,712.7322,582.0021,712.9584,582.0958,712.4867,581.6075,712.5376,581.3358,712.4747,581.0168,712.001,580.5277,712,580.2344,711.968,580.2344,712.042,574.4766,712.2173,568.7188,711.9986,562.9609,712.1542,557.2031,712,551.4453,711.8295,551.3747,711.9379,551.0054,712.448,550.8024,712.2186,550.2932,712.7425,550.096,712.7322,549.6775,712.7586,549.7412,713.0516,549.4486,713.3942,549.2757,713.8514,549.3795,714.1083,548.9996,714.5,548.9453" style="stroke:#00BFFF;stroke-width:0.5;"/><text fill="#A9DCDF" font-family="Impact" font-size="17" lengthAdjust="spacing" textLength="116" x="719" y="571.7251">TargetMcDesc</text><polygon fill="#1E90FF" points="944.5,87.2969,944.5,87.5071,954.7308,86.8826,964.9615,87.4902,975.1923,87.6966,985.4231,86.5835,995.6538,87.2192,1005.8846,86.8704,1016.1154,86.9134,1026.3462,87.2287,1036.5769,86.6055,1046.8077,87.8505,1057.0385,86.6666,1067.2692,87.0991,1077.5,87.2969,1077.5551,87.4299,1077.8426,87.4169,1078.2158,87.6108,1078.5566,87.7264,1078.937,87.9376,1079.2678,88.0291,1079.3414,88.0596,1079.5946,88.4574,1079.7673,88.8218,1079.9163,89.1764,1079.932,89.4758,1080,89.7969,1080.1545,89.7969,1080.2341,95.5547,1079.7596,101.3125,1080.2262,107.0703,1079.9012,112.8281,1080,118.5859,1080.1644,118.654,1079.7011,118.8763,1079.686,119.2843,1079.789,119.7412,1079.3992,119.9939,1079.2678,120.3537,1079.2812,120.3861,1078.9574,120.6044,1078.6138,120.7748,1078.2066,120.7918,1077.8902,121.0279,1077.5,121.0859,1077.5,120.5135,1067.2692,121.3703,1057.0385,121.6341,1046.8077,121.5305,1036.5769,121.699,1026.3462,120.6029,1016.1154,120.4338,1005.8846,120.4645,995.6538,121.0271,985.4231,120.8894,975.1923,121.7673,964.9615,120.9113,954.7308,120.7429,944.5,121.0859,944.5291,121.1562,944.0614,120.7341,943.7267,120.6332,943.5221,120.8464,943.1414,120.6343,942.7322,120.3537,942.9584,120.4474,942.4867,119.9591,942.5376,119.6873,942.4747,119.3684,942.001,118.8792,942,118.5859,941.968,118.5859,942.042,112.8281,942.2173,107.0703,941.9986,101.3125,942.1542,95.5547,942,89.7969,941.8295,89.7262,941.9379,89.3569,942.448,89.154,942.2186,88.6448,942.7425,88.4476,942.7322,88.0291,942.7586,88.0927,943.0516,87.8002,943.3942,87.6273,943.8514,87.731,944.1083,87.3511,944.5,87.2969" style="stroke:#00BFFF;stroke-width:0.5;"/><text fill="#A9DCDF" font-family="Impact" font-size="17" lengthAdjust="spacing" textLength="124" x="949" y="110.0767">TargetMachine</text><polygon fill="#1E90FF" points="944.5,548.9453,944.5,549.1555,954.7308,548.531,964.9615,549.1386,975.1923,549.345,985.4231,548.2319,995.6538,548.8676,1005.8846,548.5188,1016.1154,548.5618,1026.3462,548.8772,1036.5769,548.2539,1046.8077,549.499,1057.0385,548.315,1067.2692,548.7475,1077.5,548.9453,1077.5551,549.0783,1077.8426,549.0653,1078.2158,549.2592,1078.5566,549.3748,1078.937,549.5861,1079.2678,549.6775,1079.3414,549.708,1079.5946,550.1058,1079.7673,550.4703,1079.9163,550.8249,1079.932,551.1242,1080,551.4453,1080.1545,551.4453,1080.2341,557.2031,1079.7596,562.9609,1080.2262,568.7188,1079.9012,574.4766,1080,580.2344,1080.1644,580.3025,1079.7011,580.5248,1079.686,580.9327,1079.789,581.3896,1079.3992,581.6424,1079.2678,582.0021,1079.2812,582.0346,1078.9574,582.2529,1078.6138,582.4232,1078.2066,582.4403,1077.8902,582.6764,1077.5,582.7344,1077.5,582.162,1067.2692,583.0188,1057.0385,583.2826,1046.8077,583.1789,1036.5769,583.3474,1026.3462,582.2513,1016.1154,582.0822,1005.8846,582.113,995.6538,582.6755,985.4231,582.5378,975.1923,583.4158,964.9615,582.5597,954.7308,582.3913,944.5,582.7344,944.5291,582.8047,944.0614,582.3826,943.7267,582.2816,943.5221,582.4949,943.1414,582.2828,942.7322,582.0021,942.9584,582.0958,942.4867,581.6075,942.5376,581.3358,942.4747,581.0168,942.001,580.5277,942,580.2344,941.968,580.2344,942.042,574.4766,942.2173,568.7188,941.9986,562.9609,942.1542,557.2031,942,551.4453,941.8295,551.3747,941.9379,551.0054,942.448,550.8024,942.2186,550.2932,942.7425,550.096,942.7322,549.6775,942.7586,549.7412,943.0516,549.4486,943.3942,549.2757,943.8514,549.3795,944.1083,548.9996,944.5,548.9453" style="stroke:#00BFFF;stroke-width:0.5;"/><text fill="#A9DCDF" font-family="Impact" font-size="17" lengthAdjust="spacing" textLength="124" x="949" y="571.7251">TargetMachine</text><text fill="#000000" font-family="sans-serif" font-size="14" lengthAdjust="spacing" textLength="29" x="1172" y="118.7842">ZPU</text><polygon fill="#E2E2F0" points="1201.5663,92.7079,1199.8073,95.1114,1197.7268,98.6317,1194.7512,101.004,1191.6244,102.3014,1189.1313,102.414,1185.9269,100.7915,1182.9035,99.7315,1180.6086,97.5794,1179.4048,95.1157,1178.6909,93.154,1177.9915,90.5916,1176.8564,88.3867,1177.7287,86.2338,1178.4929,83.8755,1181.3611,82.0103,1183.3789,79.5903,1185.8764,78.7866,1188.8456,78.0946,1192.6532,78.5058,1194.7386,79.4893,1197.1633,79.9351,1200.1115,82.9556,1201.1392,86.1443,1201.5857,88.32,1201.08,91.9053" style="stroke:#181818;stroke-width:0.5;"/><path d="M1177.5,103.7891 L1177.5,103.8825 L1182.3,103.6049 L1187.1,103.875 L1191.9,103.9667 L1196.7,103.472 L1201.5,103.7891 " fill="#E2E2F0" style="stroke:#181818;stroke-width:0.5;"/><text fill="#000000" font-family="sans-serif" font-size="14" lengthAdjust="spacing" textLength="29" x="1172" y="561.9404">ZPU</text><polygon fill="#E2E2F0" points="1201.5663,584.1611,1199.8073,586.5645,1197.7268,590.0848,1194.7512,592.4572,1191.6244,593.7545,1189.1313,593.8671,1185.9269,592.2446,1182.9035,591.1846,1180.6086,589.0326,1179.4048,586.5689,1178.6909,584.6071,1177.9915,582.0448,1176.8564,579.8398,1177.7287,577.6869,1178.4929,575.3286,1181.3611,573.4634,1183.3789,571.0434,1185.8764,570.2398,1188.8456,569.5477,1192.6532,569.9589,1194.7386,570.9424,1197.1633,571.3882,1200.1115,574.4087,1201.1392,577.5974,1201.5857,579.7731,1201.08,583.3584" style="stroke:#181818;stroke-width:0.5;"/><path d="M1177.5,595.2422 L1177.5,595.3356 L1182.3,595.058 L1187.1,595.3281 L1191.9,595.4198 L1196.7,594.9251 L1201.5,595.2422 " fill="#E2E2F0" style="stroke:#181818;stroke-width:0.5;"/><polygon fill="#00BFFF" points="138,149.2188,138.026,149.2838,139.9487,149.8905,142.0239,150.8786,144.0495,151.7424,145.9117,152.198,148,153.2188,147.9904,153.1947,145.9472,153.8868,143.9525,154.7001,141.9916,155.5977,139.9144,156.2048,138,157.2188,138.1305,157.3492,138.6514,156.2702,139.5534,155.5721,140.5018,154.9206,141.1798,153.9985,142,153.2188,142.0161,153.2348,141.1925,152.4112,140.4421,151.6608,139.6564,150.8751,138.938,150.1568,138,149.2188" style="stroke:#00BFFF;stroke-width:1.0;"/><path d="M27,153.2188 L27,153.499 L36.75,152.6663 L46.5,153.4765 L56.25,153.7517 L66,152.2676 L75.75,153.1151 L85.5,152.6501 L95.25,152.7074 L105,153.1279 L114.75,152.2969 L124.5,153.9569 L134.25,152.3784 L144,153.2188 " fill="none" style="stroke:#00BFFF;stroke-width:1.0;"/><text fill="#000000" font-family="sans-serif" font-size="13" lengthAdjust="spacing" textLength="104" x="34" y="148.1528">&#29992;&#25143;&#20256;&#36882;&#21442;&#25968;&#32473;llc</text><polygon fill="#00BFFF" points="344,178.3516,344.026,178.4166,345.9487,179.0233,348.0239,180.0114,350.0495,180.8753,351.9117,181.3308,354,182.3516,353.9904,182.3275,351.9472,183.0196,349.9525,183.8329,347.9916,184.7305,345.9144,185.3376,344,186.3516,344.1305,186.4821,344.6514,185.403,345.5534,184.7049,346.5018,184.0534,347.1798,183.1313,348,182.3516,348.0161,182.3676,347.1925,181.544,346.4421,180.7936,345.6564,180.0079,344.938,179.2896,344,178.3516" style="stroke:#00BFFF;stroke-width:1.0;"/><path d="M160,182.3516 L160,182.6318 L170,181.7991 L180,182.6093 L190,182.8845 L200,181.4004 L210,182.2479 L220,181.7829 L230,181.8402 L240,182.2607 L250,181.4297 L260,183.0898 L270,181.5112 L280,182.0879 L290,182.9275 L300,182.2372 L310,182.4425 L320,182.309 L330,182.5896 L340,182.6704 L350,182.3516 " fill="none" style="stroke:#00BFFF;stroke-width:1.0;"/><text fill="#000000" font-family="sans-serif" font-size="13" lengthAdjust="spacing" textLength="177" x="167" y="177.2856">&#21021;&#22987;&#21270;LLVM&#25152;&#25903;&#25345;&#30340;&#25152;&#26377;&#21518;&#31471;</text><polygon fill="#00BFFF" points="560,207.4844,560.026,207.5494,561.9487,208.1561,564.0239,209.1442,566.0495,210.0081,567.9117,210.4636,570,211.4844,569.9904,211.4603,567.9472,212.1524,565.9525,212.9657,563.9916,213.8633,561.9144,214.4704,560,215.4844,560.1305,215.6149,560.6514,214.5358,561.5534,213.8378,562.5018,213.1862,563.1798,212.2642,564,211.4844,564.0161,211.5005,563.1925,210.6768,562.4421,209.9265,561.6564,209.1407,560.938,208.4224,560,207.4844" style="stroke:#00BFFF;stroke-width:1.0;"/><path d="M366,211.4844 L366,211.7646 L376,210.9319 L386,211.7421 L396,212.0173 L406,210.5332 L416,211.3808 L426,210.9157 L436,210.973 L446,211.3935 L456,210.5625 L466,212.2226 L476,210.644 L486,211.2207 L496,212.0603 L506,211.37 L516,211.5754 L526,211.4418 L536,211.7224 L546,211.8032 L556,212.2653 L566,211.4844 " fill="none" style="stroke:#00BFFF;stroke-width:1.0;"/><text fill="#000000" font-family="sans-serif" font-size="13" lengthAdjust="spacing" textLength="80" x="373" y="206.4185">&#27880;&#20876;ZPU&#20449;&#24687;</text><polygon fill="#00BFFF" points="760,236.6172,760.026,236.6822,761.9487,237.289,764.0239,238.277,766.0495,239.1409,767.9117,239.5964,770,240.6172,769.9904,240.5931,767.9472,241.2852,765.9525,242.0985,763.9916,242.9961,761.9144,243.6032,760,244.6172,760.1305,244.7477,760.6514,243.6686,761.5534,242.9706,762.5018,242.319,763.1798,241.397,764,240.6172,764.0161,240.6333,763.1925,239.8097,762.4421,239.0593,761.6564,238.2736,760.938,237.5552,760,236.6172" style="stroke:#00BFFF;stroke-width:1.0;"/><path d="M582,240.6172 L582,240.8974 L592.2222,240.0648 L602.4444,240.8749 L612.6667,241.1501 L622.8889,239.666 L633.1111,240.5136 L643.3333,240.0485 L653.5556,240.1059 L663.7778,240.5263 L674,239.6954 L684.2222,241.3554 L694.4444,239.7768 L704.6667,240.3535 L714.8889,241.1931 L725.1111,240.5028 L735.3333,240.7082 L745.5556,240.5746 L755.7778,240.8552 L766,240.6172 " fill="none" style="stroke:#00BFFF;stroke-width:1.0;"/><text fill="#000000" font-family="sans-serif" font-size="13" lengthAdjust="spacing" textLength="171" x="589" y="235.5513">&#27880;&#20876;ZPU&#30446;&#26631;&#26550;&#26500;&#26684;&#24335;&#30340;&#25551;&#36848;</text><polygon fill="#00BFFF" points="994,265.75,994.026,265.815,995.9487,266.4218,998.0239,267.4098,1000.0495,268.2737,1001.9117,268.7292,1004,269.75,1003.9904,269.7259,1001.9472,270.418,999.9525,271.2313,997.9916,272.1289,995.9144,272.736,994,273.75,994.1305,273.8805,994.6514,272.8014,995.5534,272.1034,996.5018,271.4518,997.1798,270.5298,998,269.75,998.0161,269.7661,997.1925,268.9425,996.4421,268.1921,995.6564,267.4064,994.938,266.688,994,265.75" style="stroke:#00BFFF;stroke-width:1.0;"/><path d="M782,269.75 L782,270.0302 L791.9091,269.1976 L801.8182,270.0077 L811.7273,270.2829 L821.6364,268.7988 L831.5455,269.6464 L841.4545,269.1813 L851.3636,269.2387 L861.2727,269.6591 L871.1818,268.8282 L881.0909,270.4882 L891,268.9096 L900.9091,269.4863 L910.8182,270.3259 L920.7273,269.6356 L930.6364,269.841 L940.5455,269.7074 L950.4545,269.988 L960.3636,270.0688 L970.2727,270.5309 L980.1818,270.6447 L990.0909,270.6557 L1000,269.75 " fill="none" style="stroke:#00BFFF;stroke-width:1.0;"/><text fill="#000000" font-family="sans-serif" font-size="13" lengthAdjust="spacing" textLength="205" x="789" y="264.6841">&#27880;&#20876;ZPU&#30446;&#26631;&#26550;&#26500;&#27880;&#20876;&#21040;LLVM&#21518;&#31471;</text><polygon fill="#00BFFF" points="1177.5,294.8828,1177.526,294.9479,1179.4487,295.5546,1181.5239,296.5426,1183.5495,297.4065,1185.4117,297.862,1187.5,298.8828,1187.4904,298.8588,1185.4472,299.5508,1183.4525,300.3641,1181.4916,301.2617,1179.4144,301.8688,1177.5,302.8828,1177.6305,303.0133,1178.1514,301.9343,1179.0534,301.2362,1180.0018,300.5846,1180.6798,299.6626,1181.5,298.8828,1181.5161,298.8989,1180.6925,298.0753,1179.9421,297.3249,1179.1564,296.5392,1178.438,295.8209,1177.5,294.8828" style="stroke:#00BFFF;stroke-width:1.0;"/><path d="M1016,298.8828 L1016,299.1631 L1025.8529,298.3304 L1035.7059,299.1405 L1045.5588,299.4157 L1055.4118,297.9316 L1065.2647,298.7792 L1075.1176,298.3142 L1084.9706,298.3715 L1094.8235,298.7919 L1104.6765,297.961 L1114.5294,299.621 L1124.3824,298.0424 L1134.2353,298.6191 L1144.0882,299.4587 L1153.9412,298.7684 L1163.7941,298.9738 L1173.6471,298.8402 L1183.5,298.8828 " fill="none" style="stroke:#00BFFF;stroke-width:1.0;"/><text fill="#000000" font-family="sans-serif" font-size="13" lengthAdjust="spacing" textLength="140" x="1023" y="293.8169">&#23558;ZPU&#27880;&#20876;&#21040;LLVM&#21518;&#31471;</text><polygon fill="#00BFFF" points="377,324.0156,377.026,324.0807,374.9487,324.6874,373.0239,325.6754,371.0495,326.5393,368.9117,326.9948,367,328.0156,366.9904,327.9916,368.9472,328.6836,370.9525,329.4969,372.9916,330.3945,374.9144,331.0017,377,332.0156,377.1305,332.1461,376.0514,331.0671,375.3534,330.369,374.7018,329.7174,373.7798,328.7954,373,328.0156,373.0161,328.0317,373.7925,327.2081,374.6421,326.4577,375.4564,325.672,376.338,324.9537,377,324.0156" style="stroke:#00BFFF;stroke-width:1.0;"/><path d="M371,328.0156 L371,328.2959 L381.0635,327.4632 L391.127,328.2733 L401.1905,328.5485 L411.254,327.0644 L421.3175,327.912 L431.381,327.447 L441.4444,327.5043 L451.5079,327.9247 L461.5714,327.0938 L471.6349,328.7538 L481.6984,327.1753 L491.7619,327.7519 L501.8254,328.5916 L511.8889,327.9013 L521.9524,328.1066 L532.0159,327.973 L542.0794,328.2537 L552.1429,328.3345 L562.2063,328.7965 L572.2698,328.9104 L582.3333,328.9213 L592.3968,328.3551 L602.4603,328.6337 L612.5238,328.9519 L622.5873,327.054 L632.6508,328.9203 L642.7143,327.6203 L652.7778,328.7274 L662.8413,327.3556 L672.9048,327.9243 L682.9683,329.0044 L693.0317,327.9506 L703.0952,328.156 L713.1587,328.4671 L723.2222,328.5706 L733.2857,328.0104 L743.3492,328.3986 L753.4127,327.2524 L763.4762,328.3948 L773.5397,328.7466 L783.6032,328.6083 L793.6667,328.833 L803.7302,327.3715 L813.7937,327.146 L823.8571,327.1871 L833.9206,327.9371 L843.9841,327.7536 L854.0476,328.9242 L864.1111,327.7827 L874.1746,327.5582 L884.2381,328.32 L894.3016,327.1265 L904.3651,327.3235 L914.4286,328.8809 L924.4921,328.5965 L934.5556,328.9949 L944.619,327.5866 L954.6825,328.4412 L964.746,328.8029 L974.8095,327.3858 L984.873,327.8878 L994.9365,328.1836 L1005,328.0156 " fill="none" style="stroke:#00BFFF;stroke-width:1.0;"/><text fill="#000000" font-family="sans-serif" font-size="13" lengthAdjust="spacing" textLength="164" x="383" y="322.9497">&#30446;&#26631;&#26550;&#26500;&#24050;&#27880;&#20876;&#33267;LLVM&#21518;&#31471;</text><polygon fill="#00BFFF" points="171,353.1484,171.026,353.2135,168.9487,353.8202,167.0239,354.8083,165.0495,355.6721,162.9117,356.1276,161,357.1484,160.9904,357.1244,162.9472,357.8164,164.9525,358.6297,166.9916,359.5273,168.9144,360.1345,171,361.1484,171.1305,361.2789,170.0514,360.1999,169.3534,359.5018,168.7018,358.8502,167.7798,357.9282,167,357.1484,167.0161,357.1645,167.7925,356.3409,168.6421,355.5905,169.4564,354.8048,170.338,354.0865,171,353.1484" style="stroke:#00BFFF;stroke-width:1.0;"/><path d="M165,357.1484 L165,357.4287 L175,356.596 L185,357.4062 L195,357.6813 L205,356.1972 L215,357.0448 L225,356.5798 L235,356.6371 L245,357.0576 L255,356.2266 L265,357.8866 L275,356.3081 L285,356.8847 L295,357.7244 L305,357.0341 L315,357.2394 L325,357.1058 L335,357.3865 L345,357.4673 L355,357.1484 " fill="none" style="stroke:#00BFFF;stroke-width:1.0;"/><text fill="#000000" font-family="sans-serif" font-size="13" lengthAdjust="spacing" textLength="117" x="177" y="352.0825">&#30446;&#26631;&#26550;&#26500;&#21021;&#22987;&#21270;&#23436;&#25104;</text><polygon fill="#00BFFF" points="442.5,382.2813,442.526,382.3463,444.4487,382.953,446.5239,383.9411,448.5495,384.8049,450.4117,385.2605,452.5,386.2813,452.4904,386.2572,450.4472,386.9493,448.4525,387.7626,446.4916,388.6602,444.4144,389.2673,442.5,390.2813,442.6305,390.4117,443.1514,389.3327,444.0534,388.6346,445.0018,387.9831,445.6798,387.061,446.5,386.2813,446.5161,386.2973,445.6925,385.4737,444.9421,384.7233,444.1564,383.9376,443.438,383.2193,442.5,382.2813" style="stroke:#00BFFF;stroke-width:1.0;"/><path d="M160,386.2813 L160,386.5615 L169.9483,385.7288 L179.8966,386.539 L189.8448,386.8142 L199.7931,385.3301 L209.7414,386.1776 L219.6897,385.7126 L229.6379,385.7699 L239.5862,386.1904 L249.5345,385.3594 L259.4828,387.0194 L269.431,385.4409 L279.3793,386.0176 L289.3276,386.8572 L299.2759,386.1669 L309.2241,386.3722 L319.1724,386.2387 L329.1207,386.5193 L339.069,386.6001 L349.0172,387.0622 L358.9655,387.176 L368.9138,387.1869 L378.8621,386.6208 L388.8103,386.8994 L398.7586,387.2176 L408.7069,385.3197 L418.6552,387.1859 L428.6034,385.8859 L438.5517,386.993 L448.5,386.2813 " fill="none" style="stroke:#00BFFF;stroke-width:1.0;"/><text fill="#000000" font-family="sans-serif" font-size="13" lengthAdjust="spacing" textLength="117" x="167" y="381.2153">&#26597;&#25214;&#25351;&#23450;&#30340;&#30446;&#26631;&#26550;&#26500;</text><polygon fill="#00BFFF" points="1177.5,411.4141,1177.526,411.4791,1179.4487,412.0858,1181.5239,413.0739,1183.5495,413.9378,1185.4117,414.3933,1187.5,415.4141,1187.4904,415.39,1185.4472,416.0821,1183.4525,416.8954,1181.4916,417.793,1179.4144,418.4001,1177.5,419.4141,1177.6305,419.5446,1178.1514,418.4655,1179.0534,417.7674,1180.0018,417.1159,1180.6798,416.1938,1181.5,415.4141,1181.5161,415.4301,1180.6925,414.6065,1179.9421,413.8561,1179.1564,413.0704,1178.438,412.3521,1177.5,411.4141" style="stroke:#00BFFF;stroke-width:1.0;"/><path d="M454.5,415.4141 L454.5,415.6943 L464.4863,414.8616 L474.4726,415.6718 L484.4589,415.947 L494.4452,414.4629 L504.4315,415.3104 L514.4178,414.8454 L524.4041,414.9027 L534.3904,415.3232 L544.3767,414.4922 L554.363,416.1523 L564.3493,414.5737 L574.3356,415.1504 L584.3219,415.99 L594.3082,415.2997 L604.2945,415.505 L614.2808,415.3715 L624.2671,415.6521 L634.2534,415.7329 L644.2397,416.195 L654.226,416.3088 L664.2123,416.3197 L674.1986,415.7536 L684.1849,416.0322 L694.1712,416.3504 L704.1575,414.4525 L714.1438,416.3187 L724.1301,415.0187 L734.1164,416.1258 L744.1027,414.754 L754.089,415.3227 L764.0753,416.4029 L774.0616,415.3491 L784.0479,415.5545 L794.0342,415.8656 L804.0205,415.969 L814.0068,415.4089 L823.9932,415.797 L833.9795,414.6508 L843.9658,415.7932 L853.9521,416.145 L863.9384,416.0068 L873.9247,416.2314 L883.911,414.77 L893.8973,414.5445 L903.8836,414.5855 L913.8699,415.3356 L923.8562,415.152 L933.8425,416.3226 L943.8288,415.1812 L953.8151,414.9567 L963.8014,415.7184 L973.7877,414.5249 L983.774,414.7219 L993.7603,416.2793 L1003.7466,415.995 L1013.7329,416.3934 L1023.7192,414.985 L1033.7055,415.8397 L1043.6918,416.2013 L1053.6781,414.7842 L1063.6644,415.2862 L1073.6507,415.582 L1083.637,416.2831 L1093.6233,415.4085 L1103.6096,416.0308 L1113.5959,414.6757 L1123.5822,414.5111 L1133.5685,416.0855 L1143.5548,414.4581 L1153.5411,416.0927 L1163.5274,415.6896 L1173.5137,415.0568 L1183.5,415.4141 " fill="none" style="stroke:#00BFFF;stroke-width:1.0;"/><text fill="#000000" font-family="sans-serif" font-size="13" lengthAdjust="spacing" textLength="158" x="461.5" y="410.3481">&#26597;&#25214;&#21040;&#25351;&#23450;&#30340;&#30446;&#26631;&#26550;&#26500;ZPU</text><polygon fill="#00BFFF" points="171,440.5469,171.026,440.6119,168.9487,441.2186,167.0239,442.2067,165.0495,443.0706,162.9117,443.5261,161,444.5469,160.9904,444.5228,162.9472,445.2149,164.9525,446.0282,166.9916,446.9258,168.9144,447.5329,171,448.5469,171.1305,448.6774,170.0514,447.5983,169.3534,446.9003,168.7018,446.2487,167.7798,445.3267,167,444.5469,167.0161,444.563,167.7925,443.7393,168.6421,442.989,169.4564,442.2032,170.338,441.4849,171,440.5469" style="stroke:#00BFFF;stroke-width:1.0;"/><path d="M165,444.5469 L165,444.8271 L175.0343,443.9944 L185.0686,444.8046 L195.1029,445.0798 L205.1373,443.5957 L215.1716,444.4433 L225.2059,443.9782 L235.2402,444.0355 L245.2745,444.456 L255.3088,443.625 L265.3431,445.2851 L275.3775,443.7065 L285.4118,444.2832 L295.4461,445.1228 L305.4804,444.4325 L315.5147,444.6379 L325.549,444.5043 L335.5833,444.7849 L345.6176,444.8657 L355.652,445.3278 L365.6863,445.4416 L375.7206,445.4526 L385.7549,444.8864 L395.7892,445.165 L405.8235,445.4832 L415.8578,443.5853 L425.8922,445.4516 L435.9265,444.1515 L445.9608,445.2586 L455.9951,443.8868 L466.0294,444.4555 L476.0637,445.5357 L486.098,444.4819 L496.1324,444.6873 L506.1667,444.9984 L516.201,445.1019 L526.2353,444.5417 L536.2696,444.9298 L546.3039,443.7837 L556.3382,444.9261 L566.3725,445.2778 L576.4069,445.1396 L586.4412,445.3642 L596.4755,443.9028 L606.5098,443.6773 L616.5441,443.7183 L626.5784,444.4684 L636.6127,444.2848 L646.6471,445.4554 L656.6814,444.314 L666.7157,444.0895 L676.75,444.8512 L686.7843,443.6578 L696.8186,443.8547 L706.8529,445.4121 L716.8873,445.1278 L726.9216,445.5262 L736.9559,444.1178 L746.9902,444.9725 L757.0245,445.3341 L767.0588,443.917 L777.0931,444.4191 L787.1275,444.7149 L797.1618,445.4159 L807.1961,444.5413 L817.2304,445.1636 L827.2647,443.8085 L837.299,443.6439 L847.3333,445.2184 L857.3676,443.591 L867.402,445.2255 L877.4363,444.8224 L887.4706,444.1897 L897.5049,444.0752 L907.5392,445.1586 L917.5735,444.1478 L927.6078,445.336 L937.6422,443.8099 L947.6765,445.3701 L957.7108,445.1926 L967.7451,444.8735 L977.7794,444.6098 L987.8137,445.5157 L997.848,445.365 L1007.8824,444.7725 L1017.9167,444.9045 L1027.951,444.3732 L1037.9853,445.5021 L1048.0196,444.7534 L1058.0539,444.777 L1068.0882,443.7357 L1078.1225,444.0066 L1088.1569,445.2545 L1098.1912,445.1199 L1108.2255,444.4896 L1118.2598,444.1173 L1128.2941,444.255 L1138.3284,443.632 L1148.3627,445.0999 L1158.3971,445.533 L1168.4314,445.2487 L1178.4657,445.4735 L1188.5,444.5469 " fill="none" style="stroke:#00BFFF;stroke-width:1.0;"/><text fill="#000000" font-family="sans-serif" font-size="13" lengthAdjust="spacing" textLength="130" x="177" y="439.481">llc&#33719;&#21462;&#25351;&#23450;&#30340;&#30446;&#26631;&#26550;&#26500;</text><polygon fill="#00BFFF" points="1177.5,469.6797,1177.526,469.7447,1179.4487,470.3515,1181.5239,471.3395,1183.5495,472.2034,1185.4117,472.6589,1187.5,473.6797,1187.4904,473.6556,1185.4472,474.3477,1183.4525,475.161,1181.4916,476.0586,1179.4144,476.6657,1177.5,477.6797,1177.6305,477.8102,1178.1514,476.7311,1179.0534,476.0331,1180.0018,475.3815,1180.6798,474.4595,1181.5,473.6797,1181.5161,473.6958,1180.6925,472.8722,1179.9421,472.1218,1179.1564,471.3361,1178.438,470.6177,1177.5,469.6797" style="stroke:#00BFFF;stroke-width:1.0;"/><path d="M160,473.6797 L160,473.9599 L170.0343,473.1273 L180.0686,473.9374 L190.1029,474.2126 L200.1373,472.7285 L210.1716,473.5761 L220.2059,473.111 L230.2402,473.1684 L240.2745,473.5888 L250.3088,472.7579 L260.3431,474.4179 L270.3775,472.8393 L280.4118,473.416 L290.4461,474.2556 L300.4804,473.5653 L310.5147,473.7707 L320.549,473.6371 L330.5833,473.9177 L340.6176,473.9985 L350.652,474.4606 L360.6863,474.5744 L370.7206,474.5854 L380.7549,474.0192 L390.7892,474.2978 L400.8235,474.616 L410.8578,472.7181 L420.8922,474.5844 L430.9265,473.2843 L440.9608,474.3914 L450.9951,473.0197 L461.0294,473.5884 L471.0637,474.6685 L481.098,473.6147 L491.1324,473.8201 L501.1667,474.1312 L511.201,474.2347 L521.2353,473.6745 L531.2696,474.0626 L541.3039,472.9165 L551.3382,474.0589 L561.3725,474.4106 L571.4069,474.2724 L581.4412,474.4971 L591.4755,473.0356 L601.5098,472.8101 L611.5441,472.8512 L621.5784,473.6012 L631.6127,473.4176 L641.6471,474.5882 L651.6814,473.4468 L661.7157,473.2223 L671.75,473.984 L681.7843,472.7906 L691.8186,472.9875 L701.8529,474.545 L711.8873,474.2606 L721.9216,474.659 L731.9559,473.2506 L741.9902,474.1053 L752.0245,474.4669 L762.0588,473.0498 L772.0931,473.5519 L782.1275,473.8477 L792.1618,474.5487 L802.1961,473.6741 L812.2304,474.2964 L822.2647,472.9413 L832.299,472.7767 L842.3333,474.3512 L852.3676,472.7238 L862.402,474.3583 L872.4363,473.9552 L882.4706,473.3225 L892.5049,473.208 L902.5392,474.2914 L912.5735,473.2806 L922.6078,474.4688 L932.6422,472.9427 L942.6765,474.5029 L952.7108,474.3254 L962.7451,474.0063 L972.7794,473.7426 L982.8137,474.6485 L992.848,474.4978 L1002.8824,473.9054 L1012.9167,474.0373 L1022.951,473.506 L1032.9853,474.635 L1043.0196,473.8862 L1053.0539,473.9098 L1063.0882,472.8686 L1073.1225,473.1394 L1083.1569,474.3874 L1093.1912,474.2527 L1103.2255,473.6224 L1113.2598,473.2501 L1123.2941,473.3878 L1133.3284,472.7648 L1143.3627,474.2327 L1153.3971,474.6658 L1163.4314,474.3815 L1173.4657,474.6063 L1183.5,473.6797 " fill="none" style="stroke:#00BFFF;stroke-width:1.0;"/><text fill="#000000" font-family="sans-serif" font-size="13" lengthAdjust="spacing" textLength="257" x="167" y="468.6138">llc&#20256;&#36882;&#29992;&#25143;&#25351;&#23450;&#30340;&#21442;&#25968;, &#20351;ZPU&#26550;&#26500;&#24320;&#22987;&#24037;&#20316;</text><polygon fill="#00BFFF" points="171,498.8125,171.026,498.8775,168.9487,499.4843,167.0239,500.4723,165.0495,501.3362,162.9117,501.7917,161,502.8125,160.9904,502.7884,162.9472,503.4805,164.9525,504.2938,166.9916,505.1914,168.9144,505.7985,171,506.8125,171.1305,506.943,170.0514,505.8639,169.3534,505.1659,168.7018,504.5143,167.7798,503.5923,167,502.8125,167.0161,502.8286,167.7925,502.005,168.6421,501.2546,169.4564,500.4689,170.338,499.7505,171,498.8125" style="stroke:#00BFFF;stroke-width:1.0;"/><path d="M165,502.8125 L165,503.0927 L175.0343,502.2601 L185.0686,503.0702 L195.1029,503.3454 L205.1373,501.8613 L215.1716,502.7089 L225.2059,502.2438 L235.2402,502.3012 L245.2745,502.7216 L255.3088,501.8907 L265.3431,503.5507 L275.3775,501.9721 L285.4118,502.5488 L295.4461,503.3884 L305.4804,502.6981 L315.5147,502.9035 L325.549,502.7699 L335.5833,503.0505 L345.6176,503.1313 L355.652,503.5934 L365.6863,503.7072 L375.7206,503.7182 L385.7549,503.152 L395.7892,503.4306 L405.8235,503.7488 L415.8578,501.8509 L425.8922,503.7172 L435.9265,502.4172 L445.9608,503.5242 L455.9951,502.1525 L466.0294,502.7212 L476.0637,503.8013 L486.098,502.7475 L496.1324,502.9529 L506.1667,503.264 L516.201,503.3675 L526.2353,502.8073 L536.2696,503.1955 L546.3039,502.0493 L556.3382,503.1917 L566.3725,503.5434 L576.4069,503.4052 L586.4412,503.6299 L596.4755,502.1684 L606.5098,501.9429 L616.5441,501.984 L626.5784,502.734 L636.6127,502.5505 L646.6471,503.721 L656.6814,502.5796 L666.7157,502.3551 L676.75,503.1169 L686.7843,501.9234 L696.8186,502.1203 L706.8529,503.6778 L716.8873,503.3934 L726.9216,503.7918 L736.9559,502.3834 L746.9902,503.2381 L757.0245,503.5997 L767.0588,502.1826 L777.0931,502.6847 L787.1275,502.9805 L797.1618,503.6815 L807.1961,502.8069 L817.2304,503.4293 L827.2647,502.0741 L837.299,501.9095 L847.3333,503.484 L857.3676,501.8566 L867.402,503.4911 L877.4363,503.088 L887.4706,502.4553 L897.5049,502.3408 L907.5392,503.4242 L917.5735,502.4134 L927.6078,503.6016 L937.6422,502.0755 L947.6765,503.6357 L957.7108,503.4582 L967.7451,503.1391 L977.7794,502.8755 L987.8137,503.7813 L997.848,503.6306 L1007.8824,503.0382 L1017.9167,503.1701 L1027.951,502.6388 L1037.9853,503.7678 L1048.0196,503.019 L1058.0539,503.0426 L1068.0882,502.0014 L1078.1225,502.2722 L1088.1569,503.5202 L1098.1912,503.3855 L1108.2255,502.7553 L1118.2598,502.3829 L1128.2941,502.5206 L1138.3284,501.8976 L1148.3627,503.3655 L1158.3971,503.7986 L1168.4314,503.5144 L1178.4657,503.7391 L1188.5,502.8125 " fill="none" style="stroke:#00BFFF;stroke-width:1.0;"/><text fill="#000000" font-family="sans-serif" font-size="13" lengthAdjust="spacing" textLength="119" x="177" y="497.7466">ZPU&#24037;&#20316;&#23436;&#25104;&#24182;&#36820;&#22238;</text><polygon fill="#00BFFF" points="38,527.9453,38.026,528.0104,35.9487,528.6171,34.0239,529.6051,32.0495,530.469,29.9117,530.9245,28,531.9453,27.9904,531.9213,29.9472,532.6133,31.9525,533.4266,33.9916,534.3242,35.9144,534.9313,38,535.9453,38.1305,536.0758,37.0514,534.9968,36.3534,534.2987,35.7018,533.6471,34.7798,532.7251,34,531.9453,34.0161,531.9614,34.7925,531.1378,35.6421,530.3874,36.4564,529.6017,37.338,528.8834,38,527.9453" style="stroke:#00BFFF;stroke-width:1.0;"/><path d="M32,531.9453 L32,532.2256 L41.75,531.3929 L51.5,532.203 L61.25,532.4782 L71,530.9941 L80.75,531.8417 L90.5,531.3767 L100.25,531.434 L110,531.8544 L119.75,531.0235 L129.5,532.6835 L139.25,531.1049 L149,531.9453 " fill="none" style="stroke:#00BFFF;stroke-width:1.0;"/><text fill="#000000" font-family="sans-serif" font-size="13" lengthAdjust="spacing" textLength="65" x="44" y="526.8794">llc&#24037;&#20316;&#23436;&#25104;</text><!--SRC=[XLJFJnf15BxFNp6nr_RGKrCFJK0m8S76nDf3R-CouWRSNOUXQficq1Z5ICGOQbEXrXviJPeegIcaBSe_mmpuNtHc1zdPTPTocCo-7z_xtlVcGKsQnp2VD_ZLETkklffVv1_Rx4-DDMu0AEHCoq44hS8bPEIon2vQcHaxRnFu89bCnXCpMiGAiZBhnAGKMv2I8jQp2tYjY2q3mxSWHeYzhZ0I63iBkSruNWJ736gJk4qocDntfirbd3OjhFkNV8uWkzZJn4nY5e1vHAXfc0woQ1Iu7XA0ITYPB2R1g5dRei_HAeQfLGSPDEXQCDzW-FX9q1mWbhIeIJUZE8syqNHKG929PxqZuLa2zKU21ogWjI9I7Y_btfHq_B71fH533ju0xm10qWmN2vW0u7Wwo6VcDwGiamP2R3jNT5uWaiN2isHlmAdRPcduhQpUv-1ugz_xoikNKxui5P-obcqGOfyp4hXWX7gGiIBU3y1M1efQeu9Y2TZ1_k27A89T0Q6mU36oBpZ-FNhctKL_qt1GF-ULJhzxUbiwPBNt_4DhyFUJx5oeOhv652iPn073KQGeqv1LFhFlUwnwb4w_dEEx9Lw_vDMow5_UcxkAe8Ufb7JfAwNuh_BWV6yAI4Tu7K-qQJZUVgMkXwifwrt3aPJC6jQWSS5FT_X9cvziyTCkwzOa_Lfjs6i52un6f7-4bb3pYghX6bcb9IKB2kGVEF1z-Ye9KA5-Qrl-5OO0JiXKWzCPiSvFXJ7SkT8neeVYFY4_njr3O1TLNZcOz7BqvH4QVJdZkpUykiCkZeNmEgO0qKBX_VvLhkWyD5sk0n07dD23E8Rx7LOxYY8GsOLBGBZL2gbr6eEeZNe8-zSzEI2bKBSa5UgSzQ-R_-KbbzkDL7Aot-rXhyuQ9vCOoOrtAUcPu1y0]--></g></svg>