<?xml version="1.0" encoding="us-ascii" standalone="no"?><svg xmlns="http://www.w3.org/2000/svg" xmlns:xlink="http://www.w3.org/1999/xlink" contentStyleType="text/css" height="1917px" preserveAspectRatio="none" style="width:576px;height:1917px;background:#FFFFFF;" version="1.1" viewBox="0 0 576 1917" width="576px" zoomAndPan="magnify"><defs/><g><text fill="#000000" font-family="sans-serif" font-size="14" font-weight="bold" lengthAdjust="spacing" textLength="114" x="229.5" y="32.9951">Pattern&#32487;&#25215;&#20998;&#26512;</text><rect fill="#FFCC99" height="36.2969" rx="12.5" ry="12.5" style="stroke:#181818;stroke-width:1.5;" width="151" x="10" y="958.0469"/><text fill="#000000" font-family="sans-serif" font-size="14" lengthAdjust="spacing" textLength="131" x="20" y="981.042">SDPatternOperator</text><rect fill="#FFCC99" height="36.2969" rx="12.5" ry="12.5" style="stroke:#181818;stroke-width:1.5;" width="77" x="211" y="958.0469"/><text fill="#000000" font-family="sans-serif" font-size="14" lengthAdjust="spacing" textLength="57" x="221" y="981.042">SDNode</text><rect fill="#F08080" height="36.2969" rx="12.5" ry="12.5" style="stroke:#181818;stroke-width:1.5;" width="62" x="338" y="676.5625"/><text fill="#000000" font-family="sans-serif" font-size="14" lengthAdjust="spacing" textLength="42" x="348" y="699.5576">official</text><rect fill="#FFBBCC" height="36.2969" rx="12.5" ry="12.5" style="stroke:#181818;stroke-width:1.5;" width="32" x="450" y="57.2969"/><text fill="#000000" font-family="sans-serif" font-size="14" lengthAdjust="spacing" textLength="12" x="460" y="80.292">ld</text><path d="M400,694.7109 L410,694.7109 C425,694.7109 425,75.4453 440,75.4453 L450,75.4453 " fill="none" style="stroke:#181818;stroke-width:1.0;"/><rect fill="#FFBBCC" height="36.2969" rx="12.5" ry="12.5" style="stroke:#181818;stroke-width:1.5;" width="33" x="450" y="113.5938"/><text fill="#000000" font-family="sans-serif" font-size="14" lengthAdjust="spacing" textLength="13" x="460" y="136.5889">st</text><path d="M400,694.7109 L410,694.7109 C425,694.7109 425,131.7422 440,131.7422 L450,131.7422 " fill="none" style="stroke:#181818;stroke-width:1.0;"/><rect fill="#FFBBCC" height="36.2969" rx="12.5" ry="12.5" style="stroke:#181818;stroke-width:1.5;" width="46" x="450" y="169.8906"/><text fill="#000000" font-family="sans-serif" font-size="14" lengthAdjust="spacing" textLength="26" x="460" y="192.8857">add</text><path d="M400,694.7109 L410,694.7109 C425,694.7109 425,188.0391 440,188.0391 L450,188.0391 " fill="none" style="stroke:#181818;stroke-width:1.0;"/><rect fill="#FFBBCC" height="36.2969" rx="12.5" ry="12.5" style="stroke:#181818;stroke-width:1.5;" width="46" x="450" y="226.1875"/><text fill="#000000" font-family="sans-serif" font-size="14" lengthAdjust="spacing" textLength="26" x="460" y="249.1826">and</text><path d="M400,694.7109 L410,694.7109 C425,694.7109 425,244.3359 440,244.3359 L450,244.3359 " fill="none" style="stroke:#181818;stroke-width:1.0;"/><rect fill="#FFBBCC" height="36.2969" rx="12.5" ry="12.5" style="stroke:#181818;stroke-width:1.5;" width="34" x="450" y="282.4844"/><text fill="#000000" font-family="sans-serif" font-size="14" lengthAdjust="spacing" textLength="14" x="460" y="305.4795">or</text><path d="M400,694.7109 L410,694.7109 C425,694.7109 425,300.6328 440,300.6328 L450,300.6328 " fill="none" style="stroke:#181818;stroke-width:1.0;"/><rect fill="#FFBBCC" height="36.2969" rx="12.5" ry="12.5" style="stroke:#181818;stroke-width:1.5;" width="41" x="450" y="338.7813"/><text fill="#000000" font-family="sans-serif" font-size="14" lengthAdjust="spacing" textLength="21" x="460" y="361.7764">xor</text><path d="M400,694.7109 L410,694.7109 C425,694.7109 425,356.9297 440,356.9297 L450,356.9297 " fill="none" style="stroke:#181818;stroke-width:1.0;"/><rect fill="#FFBBCC" height="36.2969" rx="12.5" ry="12.5" style="stroke:#181818;stroke-width:1.5;" width="46" x="450" y="395.0781"/><text fill="#000000" font-family="sans-serif" font-size="14" lengthAdjust="spacing" textLength="26" x="460" y="418.0732">sub</text><path d="M400,694.7109 L410,694.7109 C425,694.7109 425,413.2266 440,413.2266 L450,413.2266 " fill="none" style="stroke:#181818;stroke-width:1.0;"/><rect fill="#FFBBCC" height="36.2969" rx="12.5" ry="12.5" style="stroke:#181818;stroke-width:1.5;" width="45" x="450" y="451.375"/><text fill="#000000" font-family="sans-serif" font-size="14" lengthAdjust="spacing" textLength="25" x="460" y="474.3701">mul</text><path d="M400,694.7109 L410,694.7109 C425,694.7109 425,469.5234 440,469.5234 L450,469.5234 " fill="none" style="stroke:#181818;stroke-width:1.0;"/><rect fill="#FFBBCC" height="36.2969" rx="12.5" ry="12.5" style="stroke:#181818;stroke-width:1.5;" width="42" x="450" y="507.6719"/><text fill="#000000" font-family="sans-serif" font-size="14" lengthAdjust="spacing" textLength="22" x="460" y="530.667">rotl</text><path d="M400,694.7109 L410,694.7109 C425,694.7109 425,525.8203 440,525.8203 L450,525.8203 " fill="none" style="stroke:#181818;stroke-width:1.0;"/><rect fill="#FFBBCC" height="36.2969" rx="12.5" ry="12.5" style="stroke:#181818;stroke-width:1.5;" width="44" x="450" y="563.9688"/><text fill="#000000" font-family="sans-serif" font-size="14" lengthAdjust="spacing" textLength="24" x="460" y="586.9639">rotr</text><path d="M400,694.7109 L410,694.7109 C425,694.7109 425,582.1172 440,582.1172 L450,582.1172 " fill="none" style="stroke:#181818;stroke-width:1.0;"/><rect fill="#FFBBCC" height="36.2969" rx="12.5" ry="12.5" style="stroke:#181818;stroke-width:1.5;" width="40" x="450" y="620.2656"/><text fill="#000000" font-family="sans-serif" font-size="14" lengthAdjust="spacing" textLength="20" x="460" y="643.2607">shl</text><path d="M400,694.7109 L410,694.7109 C425,694.7109 425,638.4141 440,638.4141 L450,638.4141 " fill="none" style="stroke:#181818;stroke-width:1.0;"/><rect fill="#FFBBCC" height="36.2969" rx="12.5" ry="12.5" style="stroke:#181818;stroke-width:1.5;" width="36" x="450" y="676.5625"/><text fill="#000000" font-family="sans-serif" font-size="14" lengthAdjust="spacing" textLength="16" x="460" y="699.5576">srl</text><path d="M400,694.7109 L410,694.7109 C425,694.7109 425,694.7109 440,694.7109 L450,694.7109 " fill="none" style="stroke:#181818;stroke-width:1.0;"/><rect fill="#FFBBCC" height="36.2969" rx="12.5" ry="12.5" style="stroke:#181818;stroke-width:1.5;" width="41" x="450" y="732.8594"/><text fill="#000000" font-family="sans-serif" font-size="14" lengthAdjust="spacing" textLength="21" x="460" y="755.8545">sra</text><path d="M400,694.7109 L410,694.7109 C425,694.7109 425,751.0078 440,751.0078 L450,751.0078 " fill="none" style="stroke:#181818;stroke-width:1.0;"/><rect fill="#FFBBCC" height="36.2969" rx="12.5" ry="12.5" style="stroke:#181818;stroke-width:1.5;" width="58" x="450" y="789.1563"/><text fill="#000000" font-family="sans-serif" font-size="14" lengthAdjust="spacing" textLength="38" x="460" y="812.1514">setcc</text><path d="M400,694.7109 L410,694.7109 C425,694.7109 425,807.3047 440,807.3047 L450,807.3047 " fill="none" style="stroke:#181818;stroke-width:1.0;"/><rect fill="#FFBBCC" height="36.2969" rx="12.5" ry="12.5" style="stroke:#181818;stroke-width:1.5;" width="34" x="450" y="845.4531"/><text fill="#000000" font-family="sans-serif" font-size="14" lengthAdjust="spacing" textLength="14" x="460" y="868.4482">br</text><path d="M400,694.7109 L410,694.7109 C425,694.7109 425,863.6016 440,863.6016 L450,863.6016 " fill="none" style="stroke:#181818;stroke-width:1.0;"/><rect fill="#FFBBCC" height="36.2969" rx="12.5" ry="12.5" style="stroke:#181818;stroke-width:1.5;" width="69" x="450" y="901.75"/><text fill="#000000" font-family="sans-serif" font-size="14" lengthAdjust="spacing" textLength="49" x="460" y="924.7451">brcond</text><path d="M400,694.7109 L410,694.7109 C425,694.7109 425,919.8984 440,919.8984 L450,919.8984 " fill="none" style="stroke:#181818;stroke-width:1.0;"/><rect fill="#FFBBCC" height="36.2969" rx="12.5" ry="12.5" style="stroke:#181818;stroke-width:1.5;" width="55" x="450" y="958.0469"/><text fill="#000000" font-family="sans-serif" font-size="14" lengthAdjust="spacing" textLength="35" x="460" y="981.042">brind</text><path d="M400,694.7109 L410,694.7109 C425,694.7109 425,976.1953 440,976.1953 L450,976.1953 " fill="none" style="stroke:#181818;stroke-width:1.0;"/><rect fill="#FFBBCC" height="36.2969" rx="12.5" ry="12.5" style="stroke:#181818;stroke-width:1.5;" width="44" x="450" y="1014.3438"/><text fill="#000000" font-family="sans-serif" font-size="14" lengthAdjust="spacing" textLength="24" x="460" y="1037.3389">ctlz</text><path d="M400,694.7109 L410,694.7109 C425,694.7109 425,1032.4922 440,1032.4922 L450,1032.4922 " fill="none" style="stroke:#181818;stroke-width:1.0;"/><rect fill="#FFBBCC" height="36.2969" rx="12.5" ry="12.5" style="stroke:#181818;stroke-width:1.5;" width="51" x="450" y="1070.6406"/><text fill="#000000" font-family="sans-serif" font-size="14" lengthAdjust="spacing" textLength="31" x="460" y="1093.6357">addr</text><path d="M400,694.7109 L410,694.7109 C425,694.7109 425,1088.7891 440,1088.7891 L450,1088.7891 " fill="none" style="stroke:#181818;stroke-width:1.0;"/><rect fill="#FFBBCC" height="36.2969" rx="12.5" ry="12.5" style="stroke:#181818;stroke-width:1.5;" width="49" x="450" y="1126.9375"/><text fill="#000000" font-family="sans-serif" font-size="14" lengthAdjust="spacing" textLength="29" x="460" y="1149.9326">imm</text><path d="M400,694.7109 L410,694.7109 C425,694.7109 425,1145.0859 440,1145.0859 L450,1145.0859 " fill="none" style="stroke:#181818;stroke-width:1.0;"/><rect fill="#FFBBCC" height="36.2969" rx="12.5" ry="12.5" style="stroke:#181818;stroke-width:1.5;" width="54" x="450" y="1183.2344"/><text fill="#000000" font-family="sans-serif" font-size="14" lengthAdjust="spacing" textLength="34" x="460" y="1206.2295">subc</text><path d="M400,694.7109 L410,694.7109 C425,694.7109 425,1201.3828 440,1201.3828 L450,1201.3828 " fill="none" style="stroke:#181818;stroke-width:1.0;"/><rect fill="#FFBBCC" height="36.2969" rx="12.5" ry="12.5" style="stroke:#181818;stroke-width:1.5;" width="54" x="450" y="1239.5313"/><text fill="#000000" font-family="sans-serif" font-size="14" lengthAdjust="spacing" textLength="34" x="460" y="1262.5264">addc</text><path d="M400,694.7109 L410,694.7109 C425,694.7109 425,1257.6797 440,1257.6797 L450,1257.6797 " fill="none" style="stroke:#181818;stroke-width:1.0;"/><rect fill="#FFBBCC" height="36.2969" rx="12.5" ry="12.5" style="stroke:#181818;stroke-width:1.5;" width="62" x="450" y="1295.8281"/><text fill="#000000" font-family="sans-serif" font-size="14" lengthAdjust="spacing" textLength="42" x="460" y="1318.8232">select</text><path d="M400,694.7109 L410,694.7109 C425,694.7109 425,1313.9766 440,1313.9766 L450,1313.9766 " fill="none" style="stroke:#181818;stroke-width:1.0;"/><path d="M288,976.1953 L298,976.1953 C313,976.1953 313,694.7109 328,694.7109 L338,694.7109 " fill="none" style="stroke:#181818;stroke-width:1.0;"/><rect fill="#ADD8E6" height="36.2969" rx="12.5" ry="12.5" style="stroke:#181818;stroke-width:1.5;" width="57" x="338" y="1605.4609"/><text fill="#000000" font-family="sans-serif" font-size="14" lengthAdjust="spacing" textLength="37" x="348" y="1628.4561">Cpu0</text><rect fill="#0066FF" height="36.2969" rx="12.5" ry="12.5" style="stroke:#181818;stroke-width:1.5;" width="109" x="445" y="1352.125"/><text fill="#000000" font-family="sans-serif" font-size="14" lengthAdjust="spacing" textLength="89" x="455" y="1375.1201">Cpu0JmpLink</text><path d="M395,1623.6094 L405,1623.6094 C420,1623.6094 420,1370.2734 435,1370.2734 L445,1370.2734 " fill="none" style="stroke:#181818;stroke-width:1.0;"/><rect fill="#0066FF" height="36.2969" rx="12.5" ry="12.5" style="stroke:#181818;stroke-width:1.5;" width="110" x="445" y="1408.4219"/><text fill="#000000" font-family="sans-serif" font-size="14" lengthAdjust="spacing" textLength="90" x="455" y="1431.417">Cpu0DivRem</text><path d="M395,1623.6094 L405,1623.6094 C420,1623.6094 420,1426.5703 435,1426.5703 L445,1426.5703 " fill="none" style="stroke:#181818;stroke-width:1.0;"/><rect fill="#0066FF" height="36.2969" rx="12.5" ry="12.5" style="stroke:#181818;stroke-width:1.5;" width="119" x="445" y="1464.7188"/><text fill="#000000" font-family="sans-serif" font-size="14" lengthAdjust="spacing" textLength="99" x="455" y="1487.7139">Cpu0DivRemu</text><path d="M395,1623.6094 L405,1623.6094 C420,1623.6094 420,1482.8672 435,1482.8672 L445,1482.8672 " fill="none" style="stroke:#181818;stroke-width:1.0;"/><rect fill="#0066FF" height="36.2969" rx="12.5" ry="12.5" style="stroke:#181818;stroke-width:1.5;" width="104" x="445" y="1521.0156"/><text fill="#000000" font-family="sans-serif" font-size="14" lengthAdjust="spacing" textLength="84" x="455" y="1544.0107">Cpu0TailCall</text><path d="M395,1623.6094 L405,1623.6094 C420,1623.6094 420,1539.1641 435,1539.1641 L445,1539.1641 " fill="none" style="stroke:#181818;stroke-width:1.0;"/><rect fill="#0066FF" height="36.2969" rx="12.5" ry="12.5" style="stroke:#181818;stroke-width:1.5;" width="94" x="445" y="1577.3125"/><text fill="#000000" font-family="sans-serif" font-size="14" lengthAdjust="spacing" textLength="74" x="455" y="1600.3076">Cpu0ehret</text><path d="M395,1623.6094 L405,1623.6094 C420,1623.6094 420,1595.4609 435,1595.4609 L445,1595.4609 " fill="none" style="stroke:#181818;stroke-width:1.0;"/><rect fill="#0066FF" height="36.2969" rx="12.5" ry="12.5" style="stroke:#181818;stroke-width:1.5;" width="70" x="445" y="1633.6094"/><text fill="#000000" font-family="sans-serif" font-size="14" lengthAdjust="spacing" textLength="50" x="455" y="1656.6045">Cpu0Hi</text><path d="M395,1623.6094 L405,1623.6094 C420,1623.6094 420,1651.7578 435,1651.7578 L445,1651.7578 " fill="none" style="stroke:#181818;stroke-width:1.0;"/><rect fill="#0066FF" height="36.2969" rx="12.5" ry="12.5" style="stroke:#181818;stroke-width:1.5;" width="73" x="445" y="1689.9063"/><text fill="#000000" font-family="sans-serif" font-size="14" lengthAdjust="spacing" textLength="53" x="455" y="1712.9014">Cpu0Lo</text><path d="M395,1623.6094 L405,1623.6094 C420,1623.6094 420,1708.0547 435,1708.0547 L445,1708.0547 " fill="none" style="stroke:#181818;stroke-width:1.0;"/><rect fill="#0066FF" height="36.2969" rx="12.5" ry="12.5" style="stroke:#181818;stroke-width:1.5;" width="115" x="445" y="1746.2031"/><text fill="#000000" font-family="sans-serif" font-size="14" lengthAdjust="spacing" textLength="95" x="455" y="1769.1982">Cpu0Wrapper</text><path d="M395,1623.6094 L405,1623.6094 C420,1623.6094 420,1764.3516 435,1764.3516 L445,1764.3516 " fill="none" style="stroke:#181818;stroke-width:1.0;"/><rect fill="#0066FF" height="36.2969" rx="12.5" ry="12.5" style="stroke:#181818;stroke-width:1.5;" width="106" x="445" y="1802.5"/><text fill="#000000" font-family="sans-serif" font-size="14" lengthAdjust="spacing" textLength="86" x="455" y="1825.4951">callseq_start</text><path d="M395,1623.6094 L405,1623.6094 C420,1623.6094 420,1820.6484 435,1820.6484 L445,1820.6484 " fill="none" style="stroke:#181818;stroke-width:1.0;"/><rect fill="#0066FF" height="36.2969" rx="12.5" ry="12.5" style="stroke:#181818;stroke-width:1.5;" width="102" x="445" y="1858.7969"/><text fill="#000000" font-family="sans-serif" font-size="14" lengthAdjust="spacing" textLength="82" x="455" y="1881.792">callseq_end</text><path d="M395,1623.6094 L405,1623.6094 C420,1623.6094 420,1876.9453 435,1876.9453 L445,1876.9453 " fill="none" style="stroke:#181818;stroke-width:1.0;"/><path d="M288,976.1953 L298,976.1953 C313,976.1953 313,1623.6094 328,1623.6094 L338,1623.6094 " fill="none" style="stroke:#181818;stroke-width:1.0;"/><path d="M161,976.1953 L171,976.1953 C186,976.1953 186,976.1953 201,976.1953 L211,976.1953 " fill="none" style="stroke:#181818;stroke-width:1.0;"/><!--SRC=[xPPBRjim48RtFCK0NII1aK2nNQFnohOKDNNas8ZiP54O1KrHDb69L2dII7k0ejtr1Dts45tqD4slKKfn_91aj0VmGf3c-qSp8r93ifCgB5NCU13Z1275L4HXX9MYal_v-UFnww_VNpu_Vl-6q14eaPWBPa8f4KF092MA2Pv9jRSlXXBpEPs2dmNCK0tUy5H9dJjTSY82nkUviACyaHhOYROoREoZt1YbL0TY9TSga4dgkhsURK-Xw_JjhkVvuwvzxGplR_xXCXdbMLnl7NtpQ9u7D5vRDV043WORUmKQzIsqbSPpzl3UFgxt25Vxk4R8s658oCN55C1tLlCrJAZ4IaXKsv9zvqO45EKXF3PVA5j874r1X24Z34TeDteK582Pa5s0Ww8BvaMIrx0D7aearRC2YNMn62bK1If5MXITKback4Ye8gJ0Ph84Y2Xzt4oo4YCg-bGUfs8u5iVbKI3bzqYfriYqsjOSzY9jEYthY9MdPRLQOVY4-d7YCVw-Gd7OyfR6UmLTeOmnYsmSHHKINKYgAlWLgu2Ug83t4YVcdoqenAHBwOTt-SgqHwDc1X3gcDjwwUhyzqfsQ9z3-npQfz0-emXpDHbuiAGoDTiod9_LhNhph77iIWOkdS5v2wn6kscrhPTW-sF8v1Dq_7haBUkG2Yq9DOS2iw-pcSuszXFKnqiCjveh5jCscFxYVUVw6S0bNp8fU4ovGlsxmSQXrJpjCGK-bQOMk1iWXuPOHmgU3n5jc8pTqrV8CoSEZUScDkN85YQk_6Wq_oy0]--></g></svg>